<svg width="1187" height="190" viewBox="0 0 1187 190" fill="none" xmlns="http://www.w3.org/2000/svg">
<g clip-path="url(#clip0_1_2)">
<path d="M13.0588 24.8235H20.1176V31.8824H13.0588V24.8235ZM20.1176 24.8235H27.1765V31.8824H20.1176V24.8235ZM27.1765 24.8235H34.2353V31.8824H27.1765V24.8235ZM34.2353 24.8235H41.2941V31.8824H34.2353V24.8235ZM34.2353 31.8824H41.2941V38.9412H34.2353V31.8824ZM27.1765 31.8824H34.2353V38.9412H27.1765V31.8824ZM20.1176 31.8824H27.1765V38.9412H20.1176V31.8824ZM13.0588 31.8824H20.1176V38.9412H13.0588V31.8824ZM13.0588 38.9412H20.1176V46H13.0588V38.9412ZM13.0588 46H20.1176V53.0588H13.0588V46ZM20.1176 46H27.1765V53.0588H20.1176V46ZM27.1765 46H34.2353V53.0588H27.1765V46ZM34.2353 46H41.2941V53.0588H34.2353V46ZM34.2353 38.9412H41.2941V46H34.2353V38.9412ZM27.1765 38.9412H34.2353V46H27.1765V38.9412ZM20.1176 38.9412H27.1765V46H20.1176V38.9412ZM13.0588 53.0588H20.1176V60.1177H13.0588V53.0588ZM13.0588 60.1177H20.1176V67.1765H13.0588V60.1177ZM13.0588 67.1765H20.1176V74.2353H13.0588V67.1765ZM20.1176 67.1765H27.1765V74.2353H20.1176V67.1765ZM27.1765 67.1765H34.2353V74.2353H27.1765V67.1765ZM27.1765 60.1177H34.2353V67.1765H27.1765V60.1177ZM34.2353 60.1177H41.2941V67.1765H34.2353V60.1177ZM34.2353 53.0588H41.2941V60.1177H34.2353V53.0588ZM27.1765 53.0588H34.2353V60.1177H27.1765V53.0588ZM20.1176 53.0588H27.1765V60.1177H20.1176V53.0588ZM20.1176 60.1177H27.1765V67.1765H20.1176V60.1177ZM27.1765 74.2353H34.2353V81.2941H27.1765V74.2353ZM34.2353 74.2353H41.2941V81.2941H34.2353V74.2353ZM34.2353 67.1765H41.2941V74.2353H34.2353V67.1765ZM34.2353 81.2941H41.2941V88.3529H34.2353V81.2941ZM41.2941 81.2941H48.3529V88.3529H41.2941V81.2941ZM41.2941 88.3529H48.3529V95.4118H41.2941V88.3529ZM48.3529 88.3529H55.4118V95.4118H48.3529V88.3529ZM48.3529 95.4118H55.4118V102.471H48.3529V95.4118ZM55.4118 95.4118H62.4706V102.471H55.4118V95.4118ZM62.4706 95.4118H69.5294V102.471H62.4706V95.4118ZM69.5294 95.4118H76.5882V102.471H69.5294V95.4118ZM69.5294 88.3529H76.5882V95.4118H69.5294V88.3529ZM76.5882 88.3529H83.6471V95.4118H76.5882V88.3529ZM83.6471 88.3529H90.7059V95.4118H83.6471V88.3529ZM83.6471 81.2941H90.7059V88.3529H83.6471V81.2941ZM76.5882 81.2941H83.6471V88.3529H76.5882V81.2941ZM76.5882 95.4118H83.6471V102.471H76.5882V95.4118ZM83.6471 95.4118H90.7059V102.471H83.6471V95.4118ZM90.7059 95.4118H97.7647V102.471H90.7059V95.4118ZM90.7059 88.3529H97.7647V95.4118H90.7059V88.3529ZM97.7647 88.3529H104.824V95.4118H97.7647V88.3529ZM97.7647 95.4118H104.824V102.471H97.7647V95.4118ZM97.7647 81.2941H104.824V88.3529H97.7647V81.2941ZM104.824 81.2941H111.882V88.3529H104.824V81.2941ZM104.824 88.3529H111.882V95.4118H104.824V88.3529ZM90.7059 81.2941H97.7647V88.3529H90.7059V81.2941ZM90.7059 74.2353H97.7647V81.2941H90.7059V74.2353ZM83.6471 74.2353H90.7059V81.2941H83.6471V74.2353ZM83.6471 67.1765H90.7059V74.2353H83.6471V67.1765ZM83.6471 60.1177H90.7059V67.1765H83.6471V60.1177ZM83.6471 53.0588H90.7059V60.1177H83.6471V53.0588ZM83.6471 46H90.7059V53.0588H83.6471V46ZM83.6471 38.9412H90.7059V46H83.6471V38.9412ZM83.6471 31.8824H90.7059V38.9412H83.6471V31.8824ZM90.7059 31.8824H97.7647V38.9412H90.7059V31.8824ZM90.7059 24.8235H97.7647V31.8824H90.7059V24.8235ZM97.7647 24.8235H104.824V31.8824H97.7647V24.8235ZM83.6471 24.8235H90.7059V31.8824H83.6471V24.8235ZM104.824 24.8235H111.882V31.8824H104.824V24.8235ZM104.824 31.8824H111.882V38.9412H104.824V31.8824ZM104.824 46H111.882V53.0588H104.824V46ZM104.824 53.0588H111.882V60.1177H104.824V53.0588ZM104.824 60.1177H111.882V67.1765H104.824V60.1177ZM104.824 67.1765H111.882V74.2353H104.824V67.1765ZM97.7647 74.2353H104.824V81.2941H97.7647V74.2353ZM97.7647 67.1765H104.824V74.2353H97.7647V67.1765ZM97.7647 60.1177H104.824V67.1765H97.7647V60.1177ZM97.7647 53.0588H104.824V60.1177H97.7647V53.0588ZM104.824 38.9412H111.882V46H104.824V38.9412ZM104.824 74.2353H111.882V81.2941H104.824V74.2353ZM97.7647 46H104.824V53.0588H97.7647V46ZM97.7647 38.9412H104.824V46H97.7647V38.9412ZM97.7647 31.8824H104.824V38.9412H97.7647V31.8824ZM90.7059 38.9412H97.7647V46H90.7059V38.9412ZM90.7059 46H97.7647V53.0588H90.7059V46ZM90.7059 53.0588H97.7647V60.1177H90.7059V53.0588ZM90.7059 60.1177H97.7647V67.1765H90.7059V60.1177ZM90.7059 67.1765H97.7647V74.2353H90.7059V67.1765ZM13.0588 74.2353H20.1176V81.2941H13.0588V74.2353ZM13.0588 81.2941H20.1176V88.3529H13.0588V81.2941ZM13.0588 88.3529H20.1176V95.4118H13.0588V88.3529ZM20.1176 88.3529H27.1765V95.4118H20.1176V88.3529ZM20.1176 81.2941H27.1765V88.3529H20.1176V81.2941ZM27.1765 81.2941H34.2353V88.3529H27.1765V81.2941ZM20.1176 74.2353H27.1765V81.2941H20.1176V74.2353ZM27.1765 95.4118H34.2353V102.471H27.1765V95.4118ZM34.2353 95.4118H41.2941V102.471H34.2353V95.4118ZM34.2353 88.3529H41.2941V95.4118H34.2353V88.3529ZM27.1765 88.3529H34.2353V95.4118H27.1765V88.3529ZM20.1176 95.4118H27.1765V102.471H20.1176V95.4118ZM41.2941 95.4118H48.3529V102.471H41.2941V95.4118ZM34.2353 102.471H41.2941V109.529H34.2353V102.471ZM27.1765 102.471H34.2353V109.529H27.1765V102.471ZM41.2941 102.471H48.3529V109.529H41.2941V102.471ZM48.3529 102.471H55.4118V109.529H48.3529V102.471ZM55.4118 102.471H62.4706V109.529H55.4118V102.471ZM62.4706 102.471H69.5294V109.529H62.4706V102.471ZM69.5294 102.471H76.5882V109.529H69.5294V102.471ZM76.5882 102.471H83.6471V109.529H76.5882V102.471ZM83.6471 102.471H90.7059V109.529H83.6471V102.471ZM90.7059 102.471H97.7647V109.529H90.7059V102.471ZM83.6471 109.529H90.7059V116.588H83.6471V109.529ZM76.5882 109.529H83.6471V116.588H76.5882V109.529ZM69.5294 109.529H76.5882V116.588H69.5294V109.529ZM62.4706 109.529H69.5294V116.588H62.4706V109.529ZM55.4118 109.529H62.4706V116.588H55.4118V109.529ZM48.3529 109.529H55.4118V116.588H48.3529V109.529ZM41.2941 109.529H48.3529V116.588H41.2941V109.529ZM34.2353 109.529H41.2941V116.588H34.2353V109.529ZM48.3529 116.588H55.4118V123.647H48.3529V116.588ZM55.4118 116.588H62.4706V123.647H55.4118V116.588ZM41.2941 116.588H48.3529V123.647H41.2941V116.588ZM62.4706 116.588H69.5294V123.647H62.4706V116.588ZM69.5294 116.588H76.5882V123.647H69.5294V116.588ZM76.5882 116.588H83.6471V123.647H76.5882V116.588ZM69.5294 123.647H76.5882V130.706H69.5294V123.647ZM62.4706 123.647H69.5294V130.706H62.4706V123.647ZM55.4118 123.647H62.4706V130.706H55.4118V123.647ZM48.3529 123.647H55.4118V130.706H48.3529V123.647ZM48.3529 130.706H55.4118V137.765H48.3529V130.706ZM55.4118 130.706H62.4706V137.765H55.4118V130.706ZM62.4706 130.706H69.5294V137.765H62.4706V130.706ZM69.5294 130.706H76.5882V137.765H69.5294V130.706ZM69.5294 137.765H76.5882V144.824H69.5294V137.765ZM69.5294 144.824H76.5882V151.882H69.5294V144.824ZM69.5294 151.882H76.5882V158.941H69.5294V151.882ZM69.5294 158.941H76.5882V166H69.5294V158.941ZM62.4706 158.941H69.5294V166H62.4706V158.941ZM55.4118 158.941H62.4706V166H55.4118V158.941ZM48.3529 158.941H55.4118V166H48.3529V158.941ZM48.3529 151.882H55.4118V158.941H48.3529V151.882ZM48.3529 144.824H55.4118V151.882H48.3529V144.824ZM55.4118 137.765H62.4706V144.824H55.4118V137.765ZM62.4706 144.824H69.5294V151.882H62.4706V144.824ZM62.4706 151.882H69.5294V158.941H62.4706V151.882ZM55.4118 151.882H62.4706V158.941H55.4118V151.882ZM55.4118 144.824H62.4706V151.882H55.4118V144.824ZM62.4706 137.765H69.5294V144.824H62.4706V137.765ZM48.3529 137.765H55.4118V144.824H48.3529V137.765ZM200.965 137.765H208.024V144.824H200.965V137.765ZM193.906 137.765H200.965V144.824H193.906V137.765ZM186.847 137.765H193.906V144.824H186.847V137.765ZM186.847 144.824H193.906V151.882H186.847V144.824ZM193.906 144.824H200.965V151.882H193.906V144.824ZM186.847 151.882H193.906V158.941H186.847V151.882ZM179.788 151.882H186.847V158.941H179.788V151.882ZM193.906 151.882H200.965V158.941H193.906V151.882ZM179.788 158.941H186.847V166H179.788V158.941ZM172.729 158.941H179.788V166H172.729V158.941ZM165.671 158.941H172.729V166H165.671V158.941ZM158.612 158.941H165.671V166H158.612V158.941ZM151.553 158.941H158.612V166H151.553V158.941ZM144.494 158.941H151.553V166H144.494V158.941ZM137.435 158.941H144.494V166H137.435V158.941ZM137.435 151.882H144.494V158.941H137.435V151.882ZM130.376 151.882H137.435V158.941H130.376V151.882ZM123.318 151.882H130.376V158.941H123.318V151.882ZM123.318 144.824H130.376V151.882H123.318V144.824ZM130.376 144.824H137.435V151.882H130.376V144.824ZM137.435 144.824H144.494V151.882H137.435V144.824ZM144.494 144.824H151.553V151.882H144.494V144.824ZM151.553 144.824H158.612V151.882H151.553V144.824ZM158.612 144.824H165.671V151.882H158.612V144.824ZM165.671 144.824H172.729V151.882H165.671V144.824ZM172.729 144.824H179.788V151.882H172.729V144.824ZM179.788 144.824H186.847V151.882H179.788V144.824ZM172.729 151.882H179.788V158.941H172.729V151.882ZM165.671 151.882H172.729V158.941H165.671V151.882ZM158.612 151.882H165.671V158.941H158.612V151.882ZM151.553 151.882H158.612V158.941H151.553V151.882ZM144.494 151.882H151.553V158.941H144.494V151.882ZM130.376 137.765H137.435V144.824H130.376V137.765ZM123.318 137.765H130.376V144.824H123.318V137.765ZM116.259 137.765H123.318V144.824H116.259V137.765ZM130.376 130.706H137.435V137.765H130.376V130.706ZM137.435 130.706H144.494V137.765H137.435V130.706ZM144.494 137.765H151.553V144.824H144.494V137.765ZM137.435 137.765H144.494V144.824H137.435V137.765ZM123.318 130.706H130.376V137.765H123.318V130.706ZM123.318 123.647H130.376V130.706H123.318V123.647ZM116.259 123.647H123.318V130.706H116.259V123.647ZM116.259 116.588H123.318V123.647H116.259V116.588ZM116.259 130.706H123.318V137.765H116.259V130.706ZM116.259 109.529H123.318V116.588H116.259V109.529ZM123.318 109.529H130.376V116.588H123.318V109.529ZM130.376 109.529H137.435V116.588H130.376V109.529ZM137.435 109.529H144.494V116.588H137.435V109.529ZM137.435 116.588H144.494V123.647H137.435V116.588ZM137.435 123.647H144.494V130.706H137.435V123.647ZM130.376 116.588H137.435V123.647H130.376V116.588ZM123.318 116.588H130.376V123.647H123.318V116.588ZM130.376 123.647H137.435V130.706H130.376V123.647ZM151.553 137.765H158.612V144.824H151.553V137.765ZM158.612 137.765H165.671V144.824H158.612V137.765ZM165.671 137.765H172.729V144.824H165.671V137.765ZM172.729 137.765H179.788V144.824H172.729V137.765ZM179.788 137.765H186.847V144.824H179.788V137.765ZM179.788 130.706H186.847V137.765H179.788V130.706ZM172.729 130.706H179.788V137.765H172.729V130.706ZM186.847 130.706H193.906V137.765H186.847V130.706ZM193.906 130.706H200.965V137.765H193.906V130.706ZM193.906 123.647H200.965V130.706H193.906V123.647ZM200.965 123.647H208.024V130.706H200.965V123.647ZM200.965 116.588H208.024V123.647H200.965V116.588ZM200.965 130.706H208.024V137.765H200.965V130.706ZM200.965 109.529H208.024V116.588H200.965V109.529ZM200.965 102.471H208.024V109.529H200.965V102.471ZM200.965 95.4118H208.024V102.471H200.965V95.4118ZM200.965 88.3529H208.024V95.4118H200.965V88.3529ZM200.965 81.2941H208.024V88.3529H200.965V81.2941ZM193.906 81.2941H200.965V88.3529H193.906V81.2941ZM193.906 74.2353H200.965V81.2941H193.906V74.2353ZM186.847 81.2941H193.906V88.3529H186.847V81.2941ZM179.788 81.2941H186.847V88.3529H179.788V81.2941ZM179.788 88.3529H186.847V95.4118H179.788V88.3529ZM179.788 95.4118H186.847V102.471H179.788V95.4118ZM179.788 102.471H186.847V109.529H179.788V102.471ZM179.788 109.529H186.847V116.588H179.788V109.529ZM179.788 116.588H186.847V123.647H179.788V116.588ZM179.788 123.647H186.847V130.706H179.788V123.647ZM186.847 123.647H193.906V130.706H186.847V123.647ZM186.847 116.588H193.906V123.647H186.847V116.588ZM193.906 116.588H200.965V123.647H193.906V116.588ZM193.906 109.529H200.965V116.588H193.906V109.529ZM193.906 102.471H200.965V109.529H193.906V102.471ZM193.906 95.4118H200.965V102.471H193.906V95.4118ZM186.847 88.3529H193.906V95.4118H186.847V88.3529ZM186.847 95.4118H193.906V102.471H186.847V95.4118ZM186.847 102.471H193.906V109.529H186.847V102.471ZM186.847 109.529H193.906V116.588H186.847V109.529ZM193.906 88.3529H200.965V95.4118H193.906V88.3529ZM200.965 74.2353H208.024V81.2941H200.965V74.2353ZM200.965 67.1765H208.024V74.2353H200.965V67.1765ZM200.965 60.1177H208.024V67.1765H200.965V60.1177ZM200.965 53.0588H208.024V60.1177H200.965V53.0588ZM200.965 46H208.024V53.0588H200.965V46ZM193.906 46H200.965V53.0588H193.906V46ZM193.906 38.9412H200.965V46H193.906V38.9412ZM193.906 31.8824H200.965V38.9412H193.906V31.8824ZM186.847 31.8824H193.906V38.9412H186.847V31.8824ZM179.788 31.8824H186.847V38.9412H179.788V31.8824ZM186.847 74.2353H193.906V81.2941H186.847V74.2353ZM186.847 67.1765H193.906V74.2353H186.847V67.1765ZM186.847 60.1177H193.906V67.1765H186.847V60.1177ZM193.906 60.1177H200.965V67.1765H193.906V60.1177ZM193.906 53.0588H200.965V60.1177H193.906V53.0588ZM193.906 67.1765H200.965V74.2353H193.906V67.1765ZM179.788 74.2353H186.847V81.2941H179.788V74.2353ZM179.788 67.1765H186.847V74.2353H179.788V67.1765ZM186.847 53.0588H193.906V60.1177H186.847V53.0588ZM179.788 53.0588H186.847V60.1177H179.788V53.0588ZM179.788 60.1177H186.847V67.1765H179.788V60.1177ZM172.729 53.0588H179.788V60.1177H172.729V53.0588ZM172.729 46H179.788V53.0588H172.729V46ZM179.788 38.9412H186.847V46H179.788V38.9412ZM186.847 38.9412H193.906V46H186.847V38.9412ZM186.847 46H193.906V53.0588H186.847V46ZM179.788 46H186.847V53.0588H179.788V46ZM172.729 38.9412H179.788V46H172.729V38.9412ZM172.729 31.8824H179.788V38.9412H172.729V31.8824ZM172.729 24.8235H179.788V31.8824H172.729V24.8235ZM179.788 24.8235H186.847V31.8824H179.788V24.8235ZM165.671 24.8235H172.729V31.8824H165.671V24.8235ZM158.612 24.8235H165.671V31.8824H158.612V24.8235ZM151.553 24.8235H158.612V31.8824H151.553V24.8235ZM144.494 24.8235H151.553V31.8824H144.494V24.8235ZM144.494 31.8824H151.553V38.9412H144.494V31.8824ZM137.435 31.8824H144.494V38.9412H137.435V31.8824ZM137.435 24.8235H144.494V31.8824H137.435V24.8235ZM130.376 31.8824H137.435V38.9412H130.376V31.8824ZM123.318 31.8824H130.376V38.9412H123.318V31.8824ZM123.318 38.9412H130.376V46H123.318V38.9412ZM123.318 46H130.376V53.0588H123.318V46ZM116.259 46H123.318V53.0588H116.259V46ZM116.259 53.0588H123.318V60.1177H116.259V53.0588ZM123.318 53.0588H130.376V60.1177H123.318V53.0588ZM130.376 53.0588H137.435V60.1177H130.376V53.0588ZM137.435 53.0588H144.494V60.1177H137.435V53.0588ZM144.494 46H151.553V53.0588H144.494V46ZM151.553 46H158.612V53.0588H151.553V46ZM158.612 46H165.671V53.0588H158.612V46ZM165.671 46H172.729V53.0588H165.671V46ZM165.671 31.8824H172.729V38.9412H165.671V31.8824ZM165.671 38.9412H172.729V46H165.671V38.9412ZM158.612 38.9412H165.671V46H158.612V38.9412ZM151.553 38.9412H158.612V46H151.553V38.9412ZM158.612 31.8824H165.671V38.9412H158.612V31.8824ZM151.553 31.8824H158.612V38.9412H151.553V31.8824ZM144.494 38.9412H151.553V46H144.494V38.9412ZM137.435 38.9412H144.494V46H137.435V38.9412ZM137.435 46H144.494V53.0588H137.435V46ZM130.376 46H137.435V53.0588H130.376V46ZM130.376 38.9412H137.435V46H130.376V38.9412ZM130.376 60.1177H137.435V67.1765H130.376V60.1177ZM130.376 67.1765H137.435V74.2353H130.376V67.1765ZM130.376 74.2353H137.435V81.2941H130.376V74.2353ZM130.376 81.2941H137.435V88.3529H130.376V81.2941ZM137.435 81.2941H144.494V88.3529H137.435V81.2941ZM137.435 88.3529H144.494V95.4118H137.435V88.3529ZM137.435 74.2353H144.494V81.2941H137.435V74.2353ZM137.435 67.1765H144.494V74.2353H137.435V67.1765ZM137.435 60.1177H144.494V67.1765H137.435V60.1177ZM137.435 95.4118H144.494V102.471H137.435V95.4118ZM137.435 102.471H144.494V109.529H137.435V102.471ZM130.376 102.471H137.435V109.529H130.376V102.471ZM123.318 102.471H130.376V109.529H123.318V102.471ZM116.259 95.4118H123.318V102.471H116.259V95.4118ZM116.259 102.471H123.318V109.529H116.259V102.471ZM116.259 88.3529H123.318V95.4118H116.259V88.3529ZM116.259 81.2941H123.318V88.3529H116.259V81.2941ZM116.259 74.2353H123.318V81.2941H116.259V74.2353ZM116.259 67.1765H123.318V74.2353H116.259V67.1765ZM116.259 60.1177H123.318V67.1765H116.259V60.1177ZM123.318 67.1765H130.376V74.2353H123.318V67.1765ZM123.318 74.2353H130.376V81.2941H123.318V74.2353ZM123.318 81.2941H130.376V88.3529H123.318V81.2941ZM123.318 88.3529H130.376V95.4118H123.318V88.3529ZM123.318 95.4118H130.376V102.471H123.318V95.4118ZM130.376 95.4118H137.435V102.471H130.376V95.4118ZM130.376 88.3529H137.435V95.4118H130.376V88.3529ZM123.318 60.1177H130.376V67.1765H123.318V60.1177ZM130.376 24.8235H137.435V31.8824H130.376V24.8235ZM123.318 24.8235H130.376V31.8824H123.318V24.8235ZM116.259 24.8235H123.318V31.8824H116.259V24.8235ZM116.259 31.8824H123.318V38.9412H116.259V31.8824ZM116.259 38.9412H123.318V46H116.259V38.9412ZM116.259 144.824H123.318V151.882H116.259V144.824ZM116.259 151.882H123.318V158.941H116.259V151.882ZM116.259 158.941H123.318V166H116.259V158.941ZM123.318 158.941H130.376V166H123.318V158.941ZM130.376 158.941H137.435V166H130.376V158.941ZM297.133 137.765H304.192V144.824H297.133V137.765ZM290.075 137.765H297.133V144.824H290.075V137.765ZM283.016 137.765H290.075V144.824H283.016V137.765ZM283.016 144.824H290.075V151.882H283.016V144.824ZM290.075 144.824H297.133V151.882H290.075V144.824ZM283.016 151.882H290.075V158.941H283.016V151.882ZM275.957 151.882H283.016V158.941H275.957V151.882ZM290.075 151.882H297.133V158.941H290.075V151.882ZM275.957 158.941H283.016V166H275.957V158.941ZM268.898 158.941H275.957V166H268.898V158.941ZM261.839 158.941H268.898V166H261.839V158.941ZM254.781 158.941H261.839V166H254.781V158.941ZM247.722 158.941H254.781V166H247.722V158.941ZM240.663 158.941H247.722V166H240.663V158.941ZM233.604 158.941H240.663V166H233.604V158.941ZM233.604 151.882H240.663V158.941H233.604V151.882ZM226.545 151.882H233.604V158.941H226.545V151.882ZM219.486 151.882H226.545V158.941H219.486V151.882ZM219.486 144.824H226.545V151.882H219.486V144.824ZM226.545 144.824H233.604V151.882H226.545V144.824ZM233.604 144.824H240.663V151.882H233.604V144.824ZM240.663 144.824H247.722V151.882H240.663V144.824ZM247.722 144.824H254.781V151.882H247.722V144.824ZM254.781 144.824H261.839V151.882H254.781V144.824ZM261.839 144.824H268.898V151.882H261.839V144.824ZM268.898 144.824H275.957V151.882H268.898V144.824ZM275.957 144.824H283.016V151.882H275.957V144.824ZM268.898 151.882H275.957V158.941H268.898V151.882ZM261.839 151.882H268.898V158.941H261.839V151.882ZM254.781 151.882H261.839V158.941H254.781V151.882ZM247.722 151.882H254.781V158.941H247.722V151.882ZM240.663 151.882H247.722V158.941H240.663V151.882ZM226.545 137.765H233.604V144.824H226.545V137.765ZM219.486 137.765H226.545V144.824H219.486V137.765ZM212.428 137.765H219.486V144.824H212.428V137.765ZM226.545 130.706H233.604V137.765H226.545V130.706ZM233.604 130.706H240.663V137.765H233.604V130.706ZM240.663 137.765H247.722V144.824H240.663V137.765ZM233.604 137.765H240.663V144.824H233.604V137.765ZM219.486 130.706H226.545V137.765H219.486V130.706ZM219.486 123.647H226.545V130.706H219.486V123.647ZM212.428 123.647H219.486V130.706H212.428V123.647ZM212.428 116.588H219.486V123.647H212.428V116.588ZM212.428 130.706H219.486V137.765H212.428V130.706ZM212.428 109.529H219.486V116.588H212.428V109.529ZM219.486 109.529H226.545V116.588H219.486V109.529ZM226.545 109.529H233.604V116.588H226.545V109.529ZM233.604 109.529H240.663V116.588H233.604V109.529ZM233.604 116.588H240.663V123.647H233.604V116.588ZM233.604 123.647H240.663V130.706H233.604V123.647ZM226.545 116.588H233.604V123.647H226.545V116.588ZM219.486 116.588H226.545V123.647H219.486V116.588ZM226.545 123.647H233.604V130.706H226.545V123.647ZM247.722 137.765H254.781V144.824H247.722V137.765ZM254.781 137.765H261.839V144.824H254.781V137.765ZM261.839 137.765H268.898V144.824H261.839V137.765ZM268.898 137.765H275.957V144.824H268.898V137.765ZM275.957 137.765H283.016V144.824H275.957V137.765ZM275.957 130.706H283.016V137.765H275.957V130.706ZM268.898 130.706H275.957V137.765H268.898V130.706ZM283.016 130.706H290.075V137.765H283.016V130.706ZM290.075 130.706H297.133V137.765H290.075V130.706ZM290.075 123.647H297.133V130.706H290.075V123.647ZM297.133 123.647H304.192V130.706H297.133V123.647ZM297.133 116.588H304.192V123.647H297.133V116.588ZM297.133 130.706H304.192V137.765H297.133V130.706ZM297.133 109.529H304.192V116.588H297.133V109.529ZM297.133 102.471H304.192V109.529H297.133V102.471ZM297.133 95.4118H304.192V102.471H297.133V95.4118ZM297.133 88.3529H304.192V95.4118H297.133V88.3529ZM297.133 81.2941H304.192V88.3529H297.133V81.2941ZM290.075 81.2941H297.133V88.3529H290.075V81.2941ZM290.075 74.2353H297.133V81.2941H290.075V74.2353ZM283.016 81.2941H290.075V88.3529H283.016V81.2941ZM275.957 81.2941H283.016V88.3529H275.957V81.2941ZM275.957 88.3529H283.016V95.4118H275.957V88.3529ZM275.957 95.4118H283.016V102.471H275.957V95.4118ZM275.957 102.471H283.016V109.529H275.957V102.471ZM275.957 109.529H283.016V116.588H275.957V109.529ZM275.957 116.588H283.016V123.647H275.957V116.588ZM275.957 123.647H283.016V130.706H275.957V123.647ZM283.016 123.647H290.075V130.706H283.016V123.647ZM283.016 116.588H290.075V123.647H283.016V116.588ZM290.075 116.588H297.133V123.647H290.075V116.588ZM290.075 109.529H297.133V116.588H290.075V109.529ZM290.075 102.471H297.133V109.529H290.075V102.471ZM290.075 95.4118H297.133V102.471H290.075V95.4118ZM283.016 88.3529H290.075V95.4118H283.016V88.3529ZM283.016 95.4118H290.075V102.471H283.016V95.4118ZM283.016 102.471H290.075V109.529H283.016V102.471ZM283.016 109.529H290.075V116.588H283.016V109.529ZM290.075 88.3529H297.133V95.4118H290.075V88.3529ZM297.133 74.2353H304.192V81.2941H297.133V74.2353ZM297.133 67.1765H304.192V74.2353H297.133V67.1765ZM297.133 60.1177H304.192V67.1765H297.133V60.1177ZM297.133 53.0588H304.192V60.1177H297.133V53.0588ZM297.133 46H304.192V53.0588H297.133V46ZM290.075 46H297.133V53.0588H290.075V46ZM290.075 38.9412H297.133V46H290.075V38.9412ZM290.075 31.8824H297.133V38.9412H290.075V31.8824ZM283.016 31.8824H290.075V38.9412H283.016V31.8824ZM275.957 31.8824H283.016V38.9412H275.957V31.8824ZM283.016 74.2353H290.075V81.2941H283.016V74.2353ZM283.016 67.1765H290.075V74.2353H283.016V67.1765ZM283.016 60.1177H290.075V67.1765H283.016V60.1177ZM290.075 60.1177H297.133V67.1765H290.075V60.1177ZM290.075 53.0588H297.133V60.1177H290.075V53.0588ZM290.075 67.1765H297.133V74.2353H290.075V67.1765ZM275.957 74.2353H283.016V81.2941H275.957V74.2353ZM275.957 67.1765H283.016V74.2353H275.957V67.1765ZM283.016 53.0588H290.075V60.1177H283.016V53.0588ZM275.957 53.0588H283.016V60.1177H275.957V53.0588ZM275.957 60.1177H283.016V67.1765H275.957V60.1177ZM268.898 53.0588H275.957V60.1177H268.898V53.0588ZM268.898 46H275.957V53.0588H268.898V46ZM275.957 38.9412H283.016V46H275.957V38.9412ZM283.016 38.9412H290.075V46H283.016V38.9412ZM283.016 46H290.075V53.0588H283.016V46ZM275.957 46H283.016V53.0588H275.957V46ZM268.898 38.9412H275.957V46H268.898V38.9412ZM268.898 31.8824H275.957V38.9412H268.898V31.8824ZM268.898 24.8235H275.957V31.8824H268.898V24.8235ZM275.957 24.8235H283.016V31.8824H275.957V24.8235ZM261.839 24.8235H268.898V31.8824H261.839V24.8235ZM254.781 24.8235H261.839V31.8824H254.781V24.8235ZM247.722 24.8235H254.781V31.8824H247.722V24.8235ZM240.663 24.8235H247.722V31.8824H240.663V24.8235ZM240.663 31.8824H247.722V38.9412H240.663V31.8824ZM233.604 31.8824H240.663V38.9412H233.604V31.8824ZM233.604 24.8235H240.663V31.8824H233.604V24.8235ZM226.545 31.8824H233.604V38.9412H226.545V31.8824ZM219.486 31.8824H226.545V38.9412H219.486V31.8824ZM219.486 38.9412H226.545V46H219.486V38.9412ZM219.486 46H226.545V53.0588H219.486V46ZM212.428 46H219.486V53.0588H212.428V46ZM212.428 53.0588H219.486V60.1177H212.428V53.0588ZM219.486 53.0588H226.545V60.1177H219.486V53.0588ZM226.545 53.0588H233.604V60.1177H226.545V53.0588ZM233.604 53.0588H240.663V60.1177H233.604V53.0588ZM240.663 46H247.722V53.0588H240.663V46ZM247.722 46H254.781V53.0588H247.722V46ZM254.781 46H261.839V53.0588H254.781V46ZM261.839 46H268.898V53.0588H261.839V46ZM261.839 31.8824H268.898V38.9412H261.839V31.8824ZM261.839 38.9412H268.898V46H261.839V38.9412ZM254.781 38.9412H261.839V46H254.781V38.9412ZM247.722 38.9412H254.781V46H247.722V38.9412ZM254.781 31.8824H261.839V38.9412H254.781V31.8824ZM247.722 31.8824H254.781V38.9412H247.722V31.8824ZM240.663 38.9412H247.722V46H240.663V38.9412ZM233.604 38.9412H240.663V46H233.604V38.9412ZM233.604 46H240.663V53.0588H233.604V46ZM226.545 46H233.604V53.0588H226.545V46ZM226.545 38.9412H233.604V46H226.545V38.9412ZM226.545 60.1177H233.604V67.1765H226.545V60.1177ZM226.545 67.1765H233.604V74.2353H226.545V67.1765ZM226.545 74.2353H233.604V81.2941H226.545V74.2353ZM226.545 81.2941H233.604V88.3529H226.545V81.2941ZM233.604 81.2941H240.663V88.3529H233.604V81.2941ZM233.604 88.3529H240.663V95.4118H233.604V88.3529ZM233.604 74.2353H240.663V81.2941H233.604V74.2353ZM233.604 67.1765H240.663V74.2353H233.604V67.1765ZM233.604 60.1177H240.663V67.1765H233.604V60.1177ZM233.604 95.4118H240.663V102.471H233.604V95.4118ZM233.604 102.471H240.663V109.529H233.604V102.471ZM226.545 102.471H233.604V109.529H226.545V102.471ZM219.486 102.471H226.545V109.529H219.486V102.471ZM212.428 95.4118H219.486V102.471H212.428V95.4118ZM212.428 102.471H219.486V109.529H212.428V102.471ZM212.428 88.3529H219.486V95.4118H212.428V88.3529ZM212.428 81.2941H219.486V88.3529H212.428V81.2941ZM212.428 74.2353H219.486V81.2941H212.428V74.2353ZM212.428 67.1765H219.486V74.2353H212.428V67.1765ZM212.428 60.1177H219.486V67.1765H212.428V60.1177ZM219.486 67.1765H226.545V74.2353H219.486V67.1765ZM219.486 74.2353H226.545V81.2941H219.486V74.2353ZM219.486 81.2941H226.545V88.3529H219.486V81.2941ZM219.486 88.3529H226.545V95.4118H219.486V88.3529ZM219.486 95.4118H226.545V102.471H219.486V95.4118ZM226.545 95.4118H233.604V102.471H226.545V95.4118ZM226.545 88.3529H233.604V95.4118H226.545V88.3529ZM219.486 60.1177H226.545V67.1765H219.486V60.1177ZM226.545 24.8235H233.604V31.8824H226.545V24.8235ZM219.486 24.8235H226.545V31.8824H219.486V24.8235ZM212.428 24.8235H219.486V31.8824H212.428V24.8235ZM212.428 31.8824H219.486V38.9412H212.428V31.8824ZM212.428 38.9412H219.486V46H212.428V38.9412ZM212.428 144.824H219.486V151.882H212.428V144.824ZM212.428 151.882H219.486V158.941H212.428V151.882ZM212.428 158.941H219.486V166H212.428V158.941ZM219.486 158.941H226.545V166H219.486V158.941ZM226.545 158.941H233.604V166H226.545V158.941ZM308.596 158.941H315.655V166H308.596V158.941ZM315.655 158.941H322.714V166H315.655V158.941ZM322.714 158.941H329.773V166H322.714V158.941ZM329.773 158.941H336.832V166H329.773V158.941ZM329.773 151.882H336.832V158.941H329.773V151.882ZM322.714 151.882H329.773V158.941H322.714V151.882ZM315.655 151.882H322.714V158.941H315.655V151.882ZM308.596 151.882H315.655V158.941H308.596V151.882ZM308.596 144.824H315.655V151.882H308.596V144.824ZM308.596 137.765H315.655V144.824H308.596V137.765ZM308.596 130.706H315.655V137.765H308.596V130.706ZM308.596 123.647H315.655V130.706H308.596V123.647ZM308.596 116.588H315.655V123.647H308.596V116.588ZM308.596 109.529H315.655V116.588H308.596V109.529ZM308.596 102.471H315.655V109.529H308.596V102.471ZM315.655 102.471H322.714V109.529H315.655V102.471ZM315.655 95.4118H322.714V102.471H315.655V95.4118ZM315.655 88.3529H322.714V95.4118H315.655V88.3529ZM322.714 88.3529H329.773V95.4118H322.714V88.3529ZM322.714 95.4118H329.773V102.471H322.714V95.4118ZM329.773 95.4118H336.832V102.471H329.773V95.4118ZM329.773 102.471H336.832V109.529H329.773V102.471ZM329.773 109.529H336.832V116.588H329.773V109.529ZM329.773 116.588H336.832V123.647H329.773V116.588ZM329.773 123.647H336.832V130.706H329.773V123.647ZM329.773 130.706H336.832V137.765H329.773V130.706ZM329.773 137.765H336.832V144.824H329.773V137.765ZM329.773 144.824H336.832V151.882H329.773V144.824ZM322.714 144.824H329.773V151.882H322.714V144.824ZM322.714 137.765H329.773V144.824H322.714V137.765ZM322.714 130.706H329.773V137.765H322.714V130.706ZM322.714 123.647H329.773V130.706H322.714V123.647ZM322.714 116.588H329.773V123.647H322.714V116.588ZM322.714 109.529H329.773V116.588H322.714V109.529ZM322.714 102.471H329.773V109.529H322.714V102.471ZM315.655 109.529H322.714V116.588H315.655V109.529ZM315.655 116.588H322.714V123.647H315.655V116.588ZM315.655 123.647H322.714V130.706H315.655V123.647ZM315.655 130.706H322.714V137.765H315.655V130.706ZM315.655 137.765H322.714V144.824H315.655V137.765ZM315.655 144.824H322.714V151.882H315.655V144.824ZM308.596 24.8235H315.655V31.8824H308.596V24.8235ZM308.596 31.8824H315.655V38.9412H308.596V31.8824ZM308.596 46H315.655V53.0588H308.596V46ZM308.596 53.0588H315.655V60.1177H308.596V53.0588ZM308.596 60.1177H315.655V67.1765H308.596V60.1177ZM308.596 67.1765H315.655V74.2353H308.596V67.1765ZM308.596 74.2353H315.655V81.2941H308.596V74.2353ZM308.596 81.2941H315.655V88.3529H308.596V81.2941ZM308.596 88.3529H315.655V95.4118H308.596V88.3529ZM308.596 95.4118H315.655V102.471H308.596V95.4118ZM315.655 67.1765H322.714V74.2353H315.655V67.1765ZM315.655 60.1177H322.714V67.1765H315.655V60.1177ZM315.655 53.0588H322.714V60.1177H315.655V53.0588ZM315.655 46H322.714V53.0588H315.655V46ZM315.655 38.9412H322.714V46H315.655V38.9412ZM308.596 38.9412H315.655V46H308.596V38.9412ZM315.655 24.8235H322.714V31.8824H315.655V24.8235ZM322.714 24.8235H329.773V31.8824H322.714V24.8235ZM322.714 31.8824H329.773V38.9412H322.714V31.8824ZM329.773 38.9412H336.832V46H329.773V38.9412ZM329.773 31.8824H336.832V38.9412H329.773V31.8824ZM329.773 24.8235H336.832V31.8824H329.773V24.8235ZM329.773 46H336.832V53.0588H329.773V46ZM329.773 53.0588H336.832V60.1177H329.773V53.0588ZM329.773 60.1177H336.832V67.1765H329.773V60.1177ZM329.773 67.1765H336.832V74.2353H329.773V67.1765ZM329.773 74.2353H336.832V81.2941H329.773V74.2353ZM329.773 81.2941H336.832V88.3529H329.773V81.2941ZM329.773 88.3529H336.832V95.4118H329.773V88.3529ZM322.714 81.2941H329.773V88.3529H322.714V81.2941ZM322.714 74.2353H329.773V81.2941H322.714V74.2353ZM322.714 67.1765H329.773V74.2353H322.714V67.1765ZM315.655 74.2353H322.714V81.2941H315.655V74.2353ZM315.655 81.2941H322.714V88.3529H315.655V81.2941ZM322.714 60.1177H329.773V67.1765H322.714V60.1177ZM322.714 38.9412H329.773V46H322.714V38.9412ZM322.714 46H329.773V53.0588H322.714V46ZM322.714 53.0588H329.773V60.1177H322.714V53.0588ZM315.655 31.8824H322.714V38.9412H315.655V31.8824ZM433.014 60.1177H440.073V67.1765H433.014V60.1177ZM425.955 60.1177H433.014V67.1765H425.955V60.1177ZM418.896 60.1177H425.955V67.1765H418.896V60.1177ZM411.838 60.1177H418.896V67.1765H411.838V60.1177ZM411.838 53.0588H418.896V60.1177H411.838V53.0588ZM404.779 53.0588H411.838V60.1177H404.779V53.0588ZM418.896 53.0588H425.955V60.1177H418.896V53.0588ZM425.955 53.0588H433.014V60.1177H425.955V53.0588ZM433.014 53.0588H440.073V60.1177H433.014V53.0588ZM433.014 46H440.073V53.0588H433.014V46ZM425.955 46H433.014V53.0588H425.955V46ZM418.896 46H425.955V53.0588H418.896V46ZM418.896 38.9412H425.955V46H418.896V38.9412ZM425.955 38.9412H433.014V46H425.955V38.9412ZM418.896 31.8824H425.955V38.9412H418.896V31.8824ZM411.838 31.8824H418.896V38.9412H411.838V31.8824ZM411.838 38.9412H418.896V46H411.838V38.9412ZM425.955 31.8824H433.014V38.9412H425.955V31.8824ZM404.779 38.9412H411.838V46H404.779V38.9412ZM397.72 46H404.779V53.0588H397.72V46ZM390.661 46H397.72V53.0588H390.661V46ZM404.779 46H411.838V53.0588H404.779V46ZM411.838 46H418.896V53.0588H411.838V46ZM411.838 24.8235H418.896V31.8824H411.838V24.8235ZM404.779 24.8235H411.838V31.8824H404.779V24.8235ZM397.72 24.8235H404.779V31.8824H397.72V24.8235ZM390.661 24.8235H397.72V31.8824H390.661V24.8235ZM383.602 24.8235H390.661V31.8824H383.602V24.8235ZM376.544 24.8235H383.602V31.8824H376.544V24.8235ZM369.485 24.8235H376.544V31.8824H369.485V24.8235ZM362.426 24.8235H369.485V31.8824H362.426V24.8235ZM362.426 31.8824H369.485V38.9412H362.426V31.8824ZM355.367 31.8824H362.426V38.9412H355.367V31.8824ZM348.308 31.8824H355.367V38.9412H348.308V31.8824ZM348.308 38.9412H355.367V46H348.308V38.9412ZM355.367 38.9412H362.426V46H355.367V38.9412ZM362.426 38.9412H369.485V46H362.426V38.9412ZM369.485 38.9412H376.544V46H369.485V38.9412ZM376.544 38.9412H383.602V46H376.544V38.9412ZM383.602 38.9412H390.661V46H383.602V38.9412ZM390.661 38.9412H397.72V46H390.661V38.9412ZM397.72 38.9412H404.779V46H397.72V38.9412ZM404.779 31.8824H411.838V38.9412H404.779V31.8824ZM397.72 31.8824H404.779V38.9412H397.72V31.8824ZM390.661 31.8824H397.72V38.9412H390.661V31.8824ZM383.602 31.8824H390.661V38.9412H383.602V31.8824ZM376.544 31.8824H383.602V38.9412H376.544V31.8824ZM369.485 31.8824H376.544V38.9412H369.485V31.8824ZM348.308 46H355.367V53.0588H348.308V46ZM341.249 46H348.308V53.0588H341.249V46ZM355.367 46H362.426V53.0588H355.367V46ZM362.426 46H369.485V53.0588H362.426V46ZM369.485 46H376.544V53.0588H369.485V46ZM376.544 46H383.602V53.0588H376.544V46ZM383.602 46H390.661V53.0588H383.602V46ZM362.426 53.0588H369.485V60.1177H362.426V53.0588ZM369.485 53.0588H376.544V60.1177H369.485V53.0588ZM355.367 53.0588H362.426V60.1177H355.367V53.0588ZM348.308 53.0588H355.367V60.1177H348.308V53.0588ZM341.249 53.0588H348.308V60.1177H341.249V53.0588ZM341.249 60.1177H348.308V67.1765H341.249V60.1177ZM341.249 67.1765H348.308V74.2353H341.249V67.1765ZM341.249 74.2353H348.308V81.2941H341.249V74.2353ZM341.249 81.2941H348.308V88.3529H341.249V81.2941ZM348.308 74.2353H355.367V81.2941H348.308V74.2353ZM348.308 67.1765H355.367V74.2353H348.308V67.1765ZM348.308 60.1177H355.367V67.1765H348.308V60.1177ZM355.367 60.1177H362.426V67.1765H355.367V60.1177ZM355.367 67.1765H362.426V74.2353H355.367V67.1765ZM355.367 74.2353H362.426V81.2941H355.367V74.2353ZM362.426 74.2353H369.485V81.2941H362.426V74.2353ZM362.426 67.1765H369.485V74.2353H362.426V67.1765ZM362.426 60.1177H369.485V67.1765H362.426V60.1177ZM348.308 81.2941H355.367V88.3529H348.308V81.2941ZM348.308 88.3529H355.367V95.4118H348.308V88.3529ZM348.308 95.4118H355.367V102.471H348.308V95.4118ZM355.367 95.4118H362.426V102.471H355.367V95.4118ZM362.426 95.4118H369.485V102.471H362.426V95.4118ZM362.426 88.3529H369.485V95.4118H362.426V88.3529ZM355.367 88.3529H362.426V95.4118H355.367V88.3529ZM355.367 81.2941H362.426V88.3529H355.367V81.2941ZM362.426 81.2941H369.485V88.3529H362.426V81.2941ZM369.485 74.2353H376.544V81.2941H369.485V74.2353ZM369.485 81.2941H376.544V88.3529H369.485V81.2941ZM369.485 88.3529H376.544V95.4118H369.485V88.3529ZM369.485 95.4118H376.544V102.471H369.485V95.4118ZM362.426 102.471H369.485V109.529H362.426V102.471ZM369.485 102.471H376.544V109.529H369.485V102.471ZM376.544 102.471H383.602V109.529H376.544V102.471ZM383.602 102.471H390.661V109.529H383.602V102.471ZM390.661 102.471H397.72V109.529H390.661V102.471ZM397.72 102.471H404.779V109.529H397.72V102.471ZM397.72 95.4118H404.779V102.471H397.72V95.4118ZM397.72 88.3529H404.779V95.4118H397.72V88.3529ZM390.661 81.2941H397.72V88.3529H390.661V81.2941ZM383.602 81.2941H390.661V88.3529H383.602V81.2941ZM376.544 81.2941H383.602V88.3529H376.544V81.2941ZM376.544 88.3529H383.602V95.4118H376.544V88.3529ZM383.602 88.3529H390.661V95.4118H383.602V88.3529ZM383.602 95.4118H390.661V102.471H383.602V95.4118ZM390.661 95.4118H397.72V102.471H390.661V95.4118ZM390.661 88.3529H397.72V95.4118H390.661V88.3529ZM376.544 95.4118H383.602V102.471H376.544V95.4118ZM397.72 81.2941H404.779V88.3529H397.72V81.2941ZM404.779 81.2941H411.838V88.3529H404.779V81.2941ZM411.838 81.2941H418.896V88.3529H411.838V81.2941ZM411.838 88.3529H418.896V95.4118H411.838V88.3529ZM411.838 95.4118H418.896V102.471H411.838V95.4118ZM404.779 95.4118H411.838V102.471H404.779V95.4118ZM404.779 88.3529H411.838V95.4118H404.779V88.3529ZM418.896 95.4118H425.955V102.471H418.896V95.4118ZM425.955 95.4118H433.014V102.471H425.955V95.4118ZM425.955 88.3529H433.014V95.4118H425.955V88.3529ZM418.896 88.3529H425.955V95.4118H418.896V88.3529ZM411.838 102.471H418.896V109.529H411.838V102.471ZM411.838 109.529H418.896V116.588H411.838V109.529ZM404.779 109.529H411.838V116.588H404.779V109.529ZM404.779 102.471H411.838V109.529H404.779V102.471ZM418.896 109.529H425.955V116.588H418.896V109.529ZM425.955 109.529H433.014V116.588H425.955V109.529ZM425.955 102.471H433.014V109.529H425.955V102.471ZM418.896 102.471H425.955V109.529H418.896V102.471ZM433.014 102.471H440.073V109.529H433.014V102.471ZM433.014 109.529H440.073V116.588H433.014V109.529ZM433.014 116.588H440.073V123.647H433.014V116.588ZM433.014 123.647H440.073V130.706H433.014V123.647ZM425.955 123.647H433.014V130.706H425.955V123.647ZM418.896 123.647H425.955V130.706H418.896V123.647ZM418.896 116.588H425.955V123.647H418.896V116.588ZM411.838 116.588H418.896V123.647H411.838V116.588ZM411.838 123.647H418.896V130.706H411.838V123.647ZM425.955 116.588H433.014V123.647H425.955V116.588ZM433.014 130.706H440.073V137.765H433.014V130.706ZM433.014 137.765H440.073V144.824H433.014V137.765ZM425.955 137.765H433.014V144.824H425.955V137.765ZM425.955 144.824H433.014V151.882H425.955V144.824ZM425.955 151.882H433.014V158.941H425.955V151.882ZM418.896 151.882H425.955V158.941H418.896V151.882ZM411.838 151.882H418.896V158.941H411.838V151.882ZM418.896 144.824H425.955V151.882H418.896V144.824ZM418.896 137.765H425.955V144.824H418.896V137.765ZM425.955 130.706H433.014V137.765H425.955V130.706ZM418.896 130.706H425.955V137.765H418.896V130.706ZM411.838 130.706H418.896V137.765H411.838V130.706ZM404.779 130.706H411.838V137.765H404.779V130.706ZM404.779 137.765H411.838V144.824H404.779V137.765ZM411.838 144.824H418.896V151.882H411.838V144.824ZM411.838 137.765H418.896V144.824H411.838V137.765ZM404.779 144.824H411.838V151.882H404.779V144.824ZM404.779 151.882H411.838V158.941H404.779V151.882ZM411.838 158.941H418.896V166H411.838V158.941ZM404.779 158.941H411.838V166H404.779V158.941ZM397.72 158.941H404.779V166H397.72V158.941ZM390.661 158.941H397.72V166H390.661V158.941ZM383.602 158.941H390.661V166H383.602V158.941ZM376.544 158.941H383.602V166H376.544V158.941ZM369.485 158.941H376.544V166H369.485V158.941ZM369.485 151.882H376.544V158.941H369.485V151.882ZM362.426 151.882H369.485V158.941H362.426V151.882ZM362.426 158.941H369.485V166H362.426V158.941ZM355.367 151.882H362.426V158.941H355.367V151.882ZM348.308 151.882H355.367V158.941H348.308V151.882ZM348.308 144.824H355.367V151.882H348.308V144.824ZM355.367 144.824H362.426V151.882H355.367V144.824ZM348.308 137.765H355.367V144.824H348.308V137.765ZM341.249 137.765H348.308V144.824H341.249V137.765ZM341.249 130.706H348.308V137.765H341.249V130.706ZM341.249 123.647H348.308V130.706H341.249V123.647ZM348.308 123.647H355.367V130.706H348.308V123.647ZM355.367 123.647H362.426V130.706H355.367V123.647ZM362.426 123.647H369.485V130.706H362.426V123.647ZM362.426 130.706H369.485V137.765H362.426V130.706ZM369.485 130.706H376.544V137.765H369.485V130.706ZM369.485 137.765H376.544V144.824H369.485V137.765ZM376.544 137.765H383.602V144.824H376.544V137.765ZM383.602 137.765H390.661V144.824H383.602V137.765ZM390.661 137.765H397.72V144.824H390.661V137.765ZM397.72 144.824H404.779V151.882H397.72V144.824ZM397.72 137.765H404.779V144.824H397.72V137.765ZM397.72 151.882H404.779V158.941H397.72V151.882ZM390.661 151.882H397.72V158.941H390.661V151.882ZM383.602 151.882H390.661V158.941H383.602V151.882ZM376.544 151.882H383.602V158.941H376.544V151.882ZM362.426 144.824H369.485V151.882H362.426V144.824ZM369.485 144.824H376.544V151.882H369.485V144.824ZM376.544 144.824H383.602V151.882H376.544V144.824ZM383.602 144.824H390.661V151.882H383.602V144.824ZM390.661 144.824H397.72V151.882H390.661V144.824ZM362.426 137.765H369.485V144.824H362.426V137.765ZM355.367 137.765H362.426V144.824H355.367V137.765ZM355.367 130.706H362.426V137.765H355.367V130.706ZM348.308 130.706H355.367V137.765H348.308V130.706ZM444.449 158.941H451.508V166H444.449V158.941ZM451.508 158.941H458.567V166H451.508V158.941ZM458.567 158.941H465.626V166H458.567V158.941ZM465.626 158.941H472.685V166H465.626V158.941ZM465.626 151.882H472.685V158.941H465.626V151.882ZM458.567 151.882H465.626V158.941H458.567V151.882ZM451.508 151.882H458.567V158.941H451.508V151.882ZM444.449 151.882H451.508V158.941H444.449V151.882ZM444.449 144.824H451.508V151.882H444.449V144.824ZM444.449 137.765H451.508V144.824H444.449V137.765ZM444.449 130.706H451.508V137.765H444.449V130.706ZM444.449 123.647H451.508V130.706H444.449V123.647ZM444.449 116.588H451.508V123.647H444.449V116.588ZM444.449 109.529H451.508V116.588H444.449V109.529ZM444.449 102.471H451.508V109.529H444.449V102.471ZM451.508 102.471H458.567V109.529H451.508V102.471ZM451.508 95.4118H458.567V102.471H451.508V95.4118ZM451.508 88.3529H458.567V95.4118H451.508V88.3529ZM458.567 88.3529H465.626V95.4118H458.567V88.3529ZM458.567 95.4118H465.626V102.471H458.567V95.4118ZM465.626 95.4118H472.685V102.471H465.626V95.4118ZM465.626 102.471H472.685V109.529H465.626V102.471ZM465.626 109.529H472.685V116.588H465.626V109.529ZM465.626 116.588H472.685V123.647H465.626V116.588ZM465.626 123.647H472.685V130.706H465.626V123.647ZM465.626 130.706H472.685V137.765H465.626V130.706ZM465.626 137.765H472.685V144.824H465.626V137.765ZM465.626 144.824H472.685V151.882H465.626V144.824ZM458.567 144.824H465.626V151.882H458.567V144.824ZM458.567 137.765H465.626V144.824H458.567V137.765ZM458.567 130.706H465.626V137.765H458.567V130.706ZM458.567 123.647H465.626V130.706H458.567V123.647ZM458.567 116.588H465.626V123.647H458.567V116.588ZM458.567 109.529H465.626V116.588H458.567V109.529ZM458.567 102.471H465.626V109.529H458.567V102.471ZM451.508 109.529H458.567V116.588H451.508V109.529ZM451.508 116.588H458.567V123.647H451.508V116.588ZM451.508 123.647H458.567V130.706H451.508V123.647ZM451.508 130.706H458.567V137.765H451.508V130.706ZM451.508 137.765H458.567V144.824H451.508V137.765ZM451.508 144.824H458.567V151.882H451.508V144.824ZM444.449 24.8235H451.508V31.8824H444.449V24.8235ZM444.449 31.8824H451.508V38.9412H444.449V31.8824ZM444.449 46H451.508V53.0588H444.449V46ZM444.449 53.0588H451.508V60.1177H444.449V53.0588ZM444.449 60.1177H451.508V67.1765H444.449V60.1177ZM444.449 67.1765H451.508V74.2353H444.449V67.1765ZM444.449 74.2353H451.508V81.2941H444.449V74.2353ZM444.449 81.2941H451.508V88.3529H444.449V81.2941ZM444.449 88.3529H451.508V95.4118H444.449V88.3529ZM444.449 95.4118H451.508V102.471H444.449V95.4118ZM451.508 67.1765H458.567V74.2353H451.508V67.1765ZM451.508 60.1177H458.567V67.1765H451.508V60.1177ZM451.508 53.0588H458.567V60.1177H451.508V53.0588ZM451.508 46H458.567V53.0588H451.508V46ZM451.508 38.9412H458.567V46H451.508V38.9412ZM444.449 38.9412H451.508V46H444.449V38.9412ZM451.508 24.8235H458.567V31.8824H451.508V24.8235ZM458.567 24.8235H465.626V31.8824H458.567V24.8235ZM458.567 31.8824H465.626V38.9412H458.567V31.8824ZM465.626 38.9412H472.685V46H465.626V38.9412ZM465.626 31.8824H472.685V38.9412H465.626V31.8824ZM465.626 24.8235H472.685V31.8824H465.626V24.8235ZM465.626 46H472.685V53.0588H465.626V46ZM465.626 53.0588H472.685V60.1177H465.626V53.0588ZM465.626 60.1177H472.685V67.1765H465.626V60.1177ZM465.626 67.1765H472.685V74.2353H465.626V67.1765ZM465.626 74.2353H472.685V81.2941H465.626V74.2353ZM465.626 81.2941H472.685V88.3529H465.626V81.2941ZM465.626 88.3529H472.685V95.4118H465.626V88.3529ZM458.567 81.2941H465.626V88.3529H458.567V81.2941ZM458.567 74.2353H465.626V81.2941H458.567V74.2353ZM458.567 67.1765H465.626V74.2353H458.567V67.1765ZM451.508 74.2353H458.567V81.2941H451.508V74.2353ZM451.508 81.2941H458.567V88.3529H451.508V81.2941ZM458.567 60.1177H465.626V67.1765H458.567V60.1177ZM458.567 38.9412H465.626V46H458.567V38.9412ZM458.567 46H465.626V53.0588H458.567V46ZM458.567 53.0588H465.626V60.1177H458.567V53.0588ZM451.508 31.8824H458.567V38.9412H451.508V31.8824ZM515.038 158.941H522.097V166H515.038V158.941ZM522.097 158.941H529.155V166H522.097V158.941ZM529.155 158.941H536.214V166H529.155V158.941ZM529.155 151.882H536.214V158.941H529.155V151.882ZM522.097 151.882H529.155V158.941H522.097V151.882ZM515.038 151.882H522.097V158.941H515.038V151.882ZM515.038 144.824H522.097V151.882H515.038V144.824ZM515.038 137.765H522.097V144.824H515.038V137.765ZM515.038 130.706H522.097V137.765H515.038V130.706ZM515.038 123.647H522.097V130.706H515.038V123.647ZM515.038 116.588H522.097V123.647H515.038V116.588ZM515.038 109.529H522.097V116.588H515.038V109.529ZM515.038 102.471H522.097V109.529H515.038V102.471ZM522.097 102.471H529.155V109.529H522.097V102.471ZM522.097 95.4118H529.155V102.471H522.097V95.4118ZM522.097 88.3529H529.155V95.4118H522.097V88.3529ZM529.155 88.3529H536.214V95.4118H529.155V88.3529ZM529.155 95.4118H536.214V102.471H529.155V95.4118ZM529.155 144.824H536.214V151.882H529.155V144.824ZM529.155 137.765H536.214V144.824H529.155V137.765ZM529.155 130.706H536.214V137.765H529.155V130.706ZM529.155 123.647H536.214V130.706H529.155V123.647ZM529.155 116.588H536.214V123.647H529.155V116.588ZM529.155 109.529H536.214V116.588H529.155V109.529ZM529.155 102.471H536.214V109.529H529.155V102.471ZM522.097 109.529H529.155V116.588H522.097V109.529ZM522.097 116.588H529.155V123.647H522.097V116.588ZM522.097 123.647H529.155V130.706H522.097V123.647ZM522.097 130.706H529.155V137.765H522.097V130.706ZM522.097 137.765H529.155V144.824H522.097V137.765ZM522.097 144.824H529.155V151.882H522.097V144.824ZM515.038 24.8235H522.097V31.8824H515.038V24.8235ZM515.038 31.8824H522.097V38.9412H515.038V31.8824ZM515.038 46H522.097V53.0588H515.038V46ZM515.038 53.0588H522.097V60.1177H515.038V53.0588ZM515.038 60.1177H522.097V67.1765H515.038V60.1177ZM515.038 67.1765H522.097V74.2353H515.038V67.1765ZM515.038 74.2353H522.097V81.2941H515.038V74.2353ZM515.038 81.2941H522.097V88.3529H515.038V81.2941ZM515.038 88.3529H522.097V95.4118H515.038V88.3529ZM515.038 95.4118H522.097V102.471H515.038V95.4118ZM522.097 67.1765H529.155V74.2353H522.097V67.1765ZM522.097 60.1177H529.155V67.1765H522.097V60.1177ZM522.097 53.0588H529.155V60.1177H522.097V53.0588ZM522.097 46H529.155V53.0588H522.097V46ZM522.097 38.9412H529.155V46H522.097V38.9412ZM515.038 38.9412H522.097V46H515.038V38.9412ZM522.097 24.8235H529.155V31.8824H522.097V24.8235ZM529.155 24.8235H536.214V31.8824H529.155V24.8235ZM529.155 31.8824H536.214V38.9412H529.155V31.8824ZM529.155 81.2941H536.214V88.3529H529.155V81.2941ZM529.155 74.2353H536.214V81.2941H529.155V74.2353ZM529.155 67.1765H536.214V74.2353H529.155V67.1765ZM522.097 74.2353H529.155V81.2941H522.097V74.2353ZM522.097 81.2941H529.155V88.3529H522.097V81.2941ZM529.155 60.1177H536.214V67.1765H529.155V60.1177ZM529.155 38.9412H536.214V46H529.155V38.9412ZM529.155 46H536.214V53.0588H529.155V46ZM529.155 53.0588H536.214V60.1177H529.155V53.0588ZM522.097 31.8824H529.155V38.9412H522.097V31.8824ZM472.685 81.2941H479.744V88.3529H472.685V81.2941ZM479.744 81.2941H486.802V88.3529H479.744V81.2941ZM486.802 81.2941H493.861V88.3529H486.802V81.2941ZM493.861 81.2941H500.92V88.3529H493.861V81.2941ZM500.92 81.2941H507.979V88.3529H500.92V81.2941ZM507.979 81.2941H515.038V88.3529H507.979V81.2941ZM507.979 102.471H515.038V109.529H507.979V102.471ZM500.92 102.471H507.979V109.529H500.92V102.471ZM500.92 95.4118H507.979V102.471H500.92V95.4118ZM493.861 95.4118H500.92V102.471H493.861V95.4118ZM486.802 95.4118H493.861V102.471H486.802V95.4118ZM479.744 95.4118H486.802V102.471H479.744V95.4118ZM472.685 95.4118H479.744V102.471H472.685V95.4118ZM472.685 102.471H479.744V109.529H472.685V102.471ZM479.744 102.471H486.802V109.529H479.744V102.471ZM486.802 102.471H493.861V109.529H486.802V102.471ZM493.861 102.471H500.92V109.529H493.861V102.471ZM507.979 95.4118H515.038V102.471H507.979V95.4118ZM500.92 88.3529H507.979V95.4118H500.92V88.3529ZM493.861 88.3529H500.92V95.4118H493.861V88.3529ZM472.685 88.3529H479.744V95.4118H472.685V88.3529ZM479.744 88.3529H486.802V95.4118H479.744V88.3529ZM486.802 88.3529H493.861V95.4118H486.802V88.3529ZM507.979 88.3529H515.038V95.4118H507.979V88.3529ZM507.979 24.8235H515.038V31.8824H507.979V24.8235ZM507.979 31.8824H515.038V38.9412H507.979V31.8824ZM507.979 38.9412H515.038V46H507.979V38.9412ZM507.979 46H515.038V53.0588H507.979V46ZM507.979 53.0588H515.038V60.1177H507.979V53.0588ZM507.979 60.1177H515.038V67.1765H507.979V60.1177ZM507.979 67.1765H515.038V74.2353H507.979V67.1765ZM507.979 74.2353H515.038V81.2941H507.979V74.2353ZM507.979 109.529H515.038V116.588H507.979V109.529ZM507.979 116.588H515.038V123.647H507.979V116.588ZM507.979 130.706H515.038V137.765H507.979V130.706ZM507.979 137.765H515.038V144.824H507.979V137.765ZM507.979 144.824H515.038V151.882H507.979V144.824ZM507.979 151.882H515.038V158.941H507.979V151.882ZM507.979 158.941H515.038V166H507.979V158.941ZM507.979 123.647H515.038V130.706H507.979V123.647ZM580.33 24.8235H587.389V31.8824H580.33V24.8235ZM587.389 24.8235H594.448V31.8824H587.389V24.8235ZM594.448 24.8235H601.507V31.8824H594.448V24.8235ZM601.507 31.8824H608.565V38.9412H601.507V31.8824ZM601.507 38.9412H608.565V46H601.507V38.9412ZM601.507 46H608.565V53.0588H601.507V46ZM601.507 53.0588H608.565V60.1177H601.507V53.0588ZM601.507 60.1177H608.565V67.1765H601.507V60.1177ZM601.507 67.1765H608.565V74.2353H601.507V67.1765ZM594.448 95.4118H601.507V102.471H594.448V95.4118ZM594.448 88.3529H601.507V95.4118H594.448V88.3529ZM594.448 81.2941H601.507V88.3529H594.448V81.2941ZM587.389 74.2353H594.448V81.2941H587.389V74.2353ZM587.389 67.1765H594.448V74.2353H587.389V67.1765ZM587.389 60.1177H594.448V67.1765H587.389V60.1177ZM587.389 53.0588H594.448V60.1177H587.389V53.0588ZM587.389 46H594.448V53.0588H587.389V46ZM594.448 38.9412H601.507V46H594.448V38.9412ZM594.448 31.8824H601.507V38.9412H594.448V31.8824ZM594.448 46H601.507V53.0588H594.448V46ZM594.448 53.0588H601.507V60.1177H594.448V53.0588ZM594.448 60.1177H601.507V67.1765H594.448V60.1177ZM594.448 67.1765H601.507V74.2353H594.448V67.1765ZM594.448 74.2353H601.507V81.2941H594.448V74.2353ZM580.33 38.9412H587.389V46H580.33V38.9412ZM580.33 31.8824H587.389V38.9412H580.33V31.8824ZM587.389 31.8824H594.448V38.9412H587.389V31.8824ZM587.389 38.9412H594.448V46H587.389V38.9412ZM580.33 53.0588H587.389V60.1177H580.33V53.0588ZM580.33 60.1177H587.389V67.1765H580.33V60.1177ZM580.33 67.1765H587.389V74.2353H580.33V67.1765ZM580.33 74.2353H587.389V81.2941H580.33V74.2353ZM580.33 81.2941H587.389V88.3529H580.33V81.2941ZM580.33 88.3529H587.389V95.4118H580.33V88.3529ZM580.33 46H587.389V53.0588H580.33V46ZM587.389 88.3529H594.448V95.4118H587.389V88.3529ZM587.389 95.4118H594.448V102.471H587.389V95.4118ZM587.389 81.2941H594.448V88.3529H587.389V81.2941ZM580.33 95.4118H587.389V102.471H580.33V95.4118ZM580.33 102.471H587.389V109.529H580.33V102.471ZM580.33 109.529H587.389V116.588H580.33V109.529ZM580.33 116.588H587.389V123.647H580.33V116.588ZM580.33 123.647H587.389V130.706H580.33V123.647ZM580.33 130.706H587.389V137.765H580.33V130.706ZM580.33 137.765H587.389V144.824H580.33V137.765ZM580.33 144.824H587.389V151.882H580.33V144.824ZM580.33 151.882H587.389V158.941H580.33V151.882ZM580.33 158.941H587.389V166H580.33V158.941ZM587.389 158.941H594.448V166H587.389V158.941ZM594.448 158.941H601.507V166H594.448V158.941ZM594.448 102.471H601.507V109.529H594.448V102.471ZM587.389 102.471H594.448V109.529H587.389V102.471ZM587.389 109.529H594.448V116.588H587.389V109.529ZM587.389 116.588H594.448V123.647H587.389V116.588ZM587.389 123.647H594.448V130.706H587.389V123.647ZM587.389 130.706H594.448V137.765H587.389V130.706ZM587.389 137.765H594.448V144.824H587.389V137.765ZM587.389 144.824H594.448V151.882H587.389V144.824ZM587.389 151.882H594.448V158.941H587.389V151.882ZM594.448 151.882H601.507V158.941H594.448V151.882ZM594.448 144.824H601.507V151.882H594.448V144.824ZM594.448 137.765H601.507V144.824H594.448V137.765ZM594.448 130.706H601.507V137.765H594.448V130.706ZM594.448 123.647H601.507V130.706H594.448V123.647ZM594.448 116.588H601.507V123.647H594.448V116.588ZM594.448 109.529H601.507V116.588H594.448V109.529ZM608.565 38.9412H615.624V46H608.565V38.9412ZM608.565 46H615.624V53.0588H608.565V46ZM608.565 53.0588H615.624V60.1177H608.565V53.0588ZM608.565 60.1177H615.624V67.1765H608.565V60.1177ZM608.565 67.1765H615.624V74.2353H608.565V67.1765ZM608.565 74.2353H615.624V81.2941H608.565V74.2353ZM615.624 46H622.683V53.0588H615.624V46ZM615.624 53.0588H622.683V60.1177H615.624V53.0588ZM615.624 60.1177H622.683V67.1765H615.624V60.1177ZM615.624 67.1765H622.683V74.2353H615.624V67.1765ZM615.624 74.2353H622.683V81.2941H615.624V74.2353ZM615.624 81.2941H622.683V88.3529H615.624V81.2941ZM622.683 53.0588H629.742V60.1177H622.683V53.0588ZM622.683 60.1177H629.742V67.1765H622.683V60.1177ZM622.683 67.1765H629.742V74.2353H622.683V67.1765ZM622.683 74.2353H629.742V81.2941H622.683V74.2353ZM622.683 81.2941H629.742V88.3529H622.683V81.2941ZM622.683 88.3529H629.742V95.4118H622.683V88.3529ZM629.742 60.1177H636.801V67.1765H629.742V60.1177ZM629.742 67.1765H636.801V74.2353H629.742V67.1765ZM629.742 74.2353H636.801V81.2941H629.742V74.2353ZM629.742 81.2941H636.801V88.3529H629.742V81.2941ZM629.742 88.3529H636.801V95.4118H629.742V88.3529ZM629.742 95.4118H636.801V102.471H629.742V95.4118ZM636.801 67.1765H643.86V74.2353H636.801V67.1765ZM636.801 74.2353H643.86V81.2941H636.801V74.2353ZM636.801 81.2941H643.86V88.3529H636.801V81.2941ZM636.801 88.3529H643.86V95.4118H636.801V88.3529ZM636.801 95.4118H643.86V102.471H636.801V95.4118ZM636.801 102.471H643.86V109.529H636.801V102.471ZM643.86 95.4118H650.918V102.471H643.86V95.4118ZM643.86 88.3529H650.918V95.4118H643.86V88.3529ZM643.86 81.2941H650.918V88.3529H643.86V81.2941ZM643.86 74.2353H650.918V81.2941H643.86V74.2353ZM643.86 67.1765H650.918V74.2353H643.86V67.1765ZM643.86 60.1177H650.918V67.1765H643.86V60.1177ZM650.918 53.0588H657.977V60.1177H650.918V53.0588ZM650.918 60.1177H657.977V67.1765H650.918V60.1177ZM650.918 67.1765H657.977V74.2353H650.918V67.1765ZM650.918 74.2353H657.977V81.2941H650.918V74.2353ZM650.918 81.2941H657.977V88.3529H650.918V81.2941ZM650.918 88.3529H657.977V95.4118H650.918V88.3529ZM657.977 46H665.036V53.0588H657.977V46ZM657.977 53.0588H665.036V60.1177H657.977V53.0588ZM657.977 60.1177H665.036V67.1765H657.977V60.1177ZM657.977 67.1765H665.036V74.2353H657.977V67.1765ZM657.977 74.2353H665.036V81.2941H657.977V74.2353ZM657.977 81.2941H665.036V88.3529H657.977V81.2941ZM665.036 38.9412H672.095V46H665.036V38.9412ZM665.036 46H672.095V53.0588H665.036V46ZM665.036 53.0588H672.095V60.1177H665.036V53.0588ZM665.036 60.1177H672.095V67.1765H665.036V60.1177ZM665.036 67.1765H672.095V74.2353H665.036V67.1765ZM665.036 74.2353H672.095V81.2941H665.036V74.2353ZM679.154 24.8235H686.213V31.8824H679.154V24.8235ZM686.213 24.8235H693.271V31.8824H686.213V24.8235ZM693.271 24.8235H700.33V31.8824H693.271V24.8235ZM693.271 31.8824H700.33V38.9412H693.271V31.8824ZM693.271 38.9412H700.33V46H693.271V38.9412ZM693.271 46H700.33V53.0588H693.271V46ZM693.271 53.0588H700.33V60.1177H693.271V53.0588ZM686.213 53.0588H693.271V60.1177H686.213V53.0588ZM686.213 46H693.271V53.0588H686.213V46ZM679.154 38.9412H686.213V46H679.154V38.9412ZM679.154 31.8824H686.213V38.9412H679.154V31.8824ZM672.095 38.9412H679.154V46H672.095V38.9412ZM672.095 46H679.154V53.0588H672.095V46ZM672.095 53.0588H679.154V60.1177H672.095V53.0588ZM672.095 31.8824H679.154V38.9412H672.095V31.8824ZM686.213 31.8824H693.271V38.9412H686.213V31.8824ZM686.213 38.9412H693.271V46H686.213V38.9412ZM679.154 46H686.213V53.0588H679.154V46ZM679.154 53.0588H686.213V60.1177H679.154V53.0588ZM679.154 60.1177H686.213V67.1765H679.154V60.1177ZM679.154 67.1765H686.213V74.2353H679.154V67.1765ZM672.095 67.1765H679.154V74.2353H672.095V67.1765ZM672.095 60.1177H679.154V67.1765H672.095V60.1177ZM679.154 74.2353H686.213V81.2941H679.154V74.2353ZM679.154 81.2941H686.213V88.3529H679.154V81.2941ZM679.154 88.3529H686.213V95.4118H679.154V88.3529ZM679.154 95.4118H686.213V102.471H679.154V95.4118ZM679.154 102.471H686.213V109.529H679.154V102.471ZM679.154 109.529H686.213V116.588H679.154V109.529ZM686.213 67.1765H693.271V74.2353H686.213V67.1765ZM686.213 60.1177H693.271V67.1765H686.213V60.1177ZM693.271 60.1177H700.33V67.1765H693.271V60.1177ZM693.271 67.1765H700.33V74.2353H693.271V67.1765ZM693.271 74.2353H700.33V81.2941H693.271V74.2353ZM693.271 81.2941H700.33V88.3529H693.271V81.2941ZM693.271 88.3529H700.33V95.4118H693.271V88.3529ZM693.271 95.4118H700.33V102.471H693.271V95.4118ZM693.271 102.471H700.33V109.529H693.271V102.471ZM693.271 109.529H700.33V116.588H693.271V109.529ZM686.213 109.529H693.271V116.588H686.213V109.529ZM686.213 102.471H693.271V109.529H686.213V102.471ZM686.213 95.4118H693.271V102.471H686.213V95.4118ZM686.213 88.3529H693.271V95.4118H686.213V88.3529ZM686.213 81.2941H693.271V88.3529H686.213V81.2941ZM686.213 74.2353H693.271V81.2941H686.213V74.2353ZM679.154 144.824H686.213V151.882H679.154V144.824ZM679.154 151.882H686.213V158.941H679.154V151.882ZM679.154 158.941H686.213V166H679.154V158.941ZM686.213 158.941H693.271V166H686.213V158.941ZM693.271 158.941H700.33V166H693.271V158.941ZM693.271 151.882H700.33V158.941H693.271V151.882ZM693.271 144.824H700.33V151.882H693.271V144.824ZM693.271 137.765H700.33V144.824H693.271V137.765ZM693.271 130.706H700.33V137.765H693.271V130.706ZM693.271 123.647H700.33V130.706H693.271V123.647ZM693.271 116.588H700.33V123.647H693.271V116.588ZM686.213 116.588H693.271V123.647H686.213V116.588ZM686.213 123.647H693.271V130.706H686.213V123.647ZM686.213 130.706H693.271V137.765H686.213V130.706ZM686.213 137.765H693.271V144.824H686.213V137.765ZM686.213 144.824H693.271V151.882H686.213V144.824ZM686.213 151.882H693.271V158.941H686.213V151.882ZM679.154 116.588H686.213V123.647H679.154V116.588ZM679.154 123.647H686.213V130.706H679.154V123.647ZM679.154 130.706H686.213V137.765H679.154V130.706ZM679.154 137.765H686.213V144.824H679.154V137.765ZM573.271 24.8235H580.33V31.8824H573.271V24.8235ZM573.271 31.8824H580.33V38.9412H573.271V31.8824ZM573.271 38.9412H580.33V46H573.271V38.9412ZM573.271 46H580.33V53.0588H573.271V46ZM573.271 53.0588H580.33V60.1177H573.271V53.0588ZM573.271 60.1177H580.33V67.1765H573.271V60.1177ZM573.271 67.1765H580.33V74.2353H573.271V67.1765ZM573.271 74.2353H580.33V81.2941H573.271V74.2353ZM573.271 81.2941H580.33V88.3529H573.271V81.2941ZM573.271 88.3529H580.33V95.4118H573.271V88.3529ZM573.271 95.4118H580.33V102.471H573.271V95.4118ZM573.271 102.471H580.33V109.529H573.271V102.471ZM573.271 109.529H580.33V116.588H573.271V109.529ZM573.271 116.588H580.33V123.647H573.271V116.588ZM573.271 123.647H580.33V130.706H573.271V123.647ZM573.271 130.706H580.33V137.765H573.271V130.706ZM573.271 137.765H580.33V144.824H573.271V137.765ZM573.271 144.824H580.33V151.882H573.271V144.824ZM573.271 151.882H580.33V158.941H573.271V151.882ZM573.271 158.941H580.33V166H573.271V158.941ZM700.33 158.941H707.389V166H700.33V158.941ZM700.33 151.882H707.389V158.941H700.33V151.882ZM700.33 144.824H707.389V151.882H700.33V144.824ZM700.33 137.765H707.389V144.824H700.33V137.765ZM700.33 130.706H707.389V137.765H700.33V130.706ZM700.33 123.647H707.389V130.706H700.33V123.647ZM700.33 116.588H707.389V123.647H700.33V116.588ZM700.33 109.529H707.389V116.588H700.33V109.529ZM700.33 102.471H707.389V109.529H700.33V102.471ZM700.33 95.4118H707.389V102.471H700.33V95.4118ZM700.33 88.3529H707.389V95.4118H700.33V88.3529ZM700.33 81.2941H707.389V88.3529H700.33V81.2941ZM700.33 74.2353H707.389V81.2941H700.33V74.2353ZM700.33 67.1765H707.389V74.2353H700.33V67.1765ZM700.33 60.1177H707.389V67.1765H700.33V60.1177ZM700.33 53.0588H707.389V60.1177H700.33V53.0588ZM700.33 46H707.389V53.0588H700.33V46ZM700.33 38.9412H707.389V46H700.33V38.9412ZM700.33 31.8824H707.389V38.9412H700.33V31.8824ZM700.33 24.8235H707.389V31.8824H700.33V24.8235ZM711.862 158.941H718.921V166H711.862V158.941ZM718.921 158.941H725.98V166H718.921V158.941ZM725.98 158.941H733.038V166H725.98V158.941ZM733.038 158.941H740.097V166H733.038V158.941ZM733.038 151.882H740.097V158.941H733.038V151.882ZM733.038 144.824H740.097V151.882H733.038V144.824ZM733.038 137.765H740.097V144.824H733.038V137.765ZM733.038 130.706H740.097V137.765H733.038V130.706ZM725.98 130.706H733.038V137.765H725.98V130.706ZM718.921 130.706H725.98V137.765H718.921V130.706ZM718.921 137.765H725.98V144.824H718.921V137.765ZM718.921 144.824H725.98V151.882H718.921V144.824ZM711.862 144.824H718.921V151.882H711.862V144.824ZM711.862 151.882H718.921V158.941H711.862V151.882ZM718.921 151.882H725.98V158.941H718.921V151.882ZM725.98 151.882H733.038V158.941H725.98V151.882ZM725.98 144.824H733.038V151.882H725.98V144.824ZM725.98 137.765H733.038V144.824H725.98V137.765ZM711.862 137.765H718.921V144.824H711.862V137.765ZM711.862 130.706H718.921V137.765H711.862V130.706ZM711.862 123.647H718.921V130.706H711.862V123.647ZM711.862 116.588H718.921V123.647H711.862V116.588ZM711.862 109.529H718.921V116.588H711.862V109.529ZM711.862 102.471H718.921V109.529H711.862V102.471ZM711.862 95.4118H718.921V102.471H711.862V95.4118ZM711.862 88.3529H718.921V95.4118H711.862V88.3529ZM711.862 81.2941H718.921V88.3529H711.862V81.2941ZM711.862 74.2353H718.921V81.2941H711.862V74.2353ZM711.862 67.1765H718.921V74.2353H711.862V67.1765ZM718.921 67.1765H725.98V74.2353H718.921V67.1765ZM725.98 67.1765H733.038V74.2353H725.98V67.1765ZM725.98 74.2353H733.038V81.2941H725.98V74.2353ZM733.038 74.2353H740.097V81.2941H733.038V74.2353ZM733.038 81.2941H740.097V88.3529H733.038V81.2941ZM733.038 88.3529H740.097V95.4118H733.038V88.3529ZM733.038 95.4118H740.097V102.471H733.038V95.4118ZM733.038 109.529H740.097V116.588H733.038V109.529ZM733.038 116.588H740.097V123.647H733.038V116.588ZM733.038 123.647H740.097V130.706H733.038V123.647ZM725.98 123.647H733.038V130.706H725.98V123.647ZM725.98 116.588H733.038V123.647H725.98V116.588ZM725.98 109.529H733.038V116.588H725.98V109.529ZM725.98 102.471H733.038V109.529H725.98V102.471ZM725.98 95.4118H733.038V102.471H725.98V95.4118ZM725.98 88.3529H733.038V95.4118H725.98V88.3529ZM725.98 81.2941H733.038V88.3529H725.98V81.2941ZM718.921 81.2941H725.98V88.3529H718.921V81.2941ZM718.921 74.2353H725.98V81.2941H718.921V74.2353ZM718.921 88.3529H725.98V95.4118H718.921V88.3529ZM718.921 95.4118H725.98V102.471H718.921V95.4118ZM718.921 109.529H725.98V116.588H718.921V109.529ZM718.921 116.588H725.98V123.647H718.921V116.588ZM718.921 123.647H725.98V130.706H718.921V123.647ZM718.921 102.471H725.98V109.529H718.921V102.471ZM733.038 102.471H740.097V109.529H733.038V102.471ZM740.097 102.471H747.156V109.529H740.097V102.471ZM754.215 102.471H761.274V109.529H754.215V102.471ZM761.274 102.471H768.333V109.529H761.274V102.471ZM768.333 102.471H775.391V109.529H768.333V102.471ZM775.391 102.471H782.45V109.529H775.391V102.471ZM782.45 102.471H789.509V109.529H782.45V102.471ZM789.509 102.471H796.568V109.529H789.509V102.471ZM789.509 109.529H796.568V116.588H789.509V109.529ZM789.509 116.588H796.568V123.647H789.509V116.588ZM789.509 123.647H796.568V130.706H789.509V123.647ZM782.45 123.647H789.509V130.706H782.45V123.647ZM775.391 123.647H782.45V130.706H775.391V123.647ZM768.333 123.647H775.391V130.706H768.333V123.647ZM761.274 123.647H768.333V130.706H761.274V123.647ZM754.215 116.588H761.274V123.647H754.215V116.588ZM747.156 116.588H754.215V123.647H747.156V116.588ZM740.097 116.588H747.156V123.647H740.097V116.588ZM740.097 109.529H747.156V116.588H740.097V109.529ZM747.156 102.471H754.215V109.529H747.156V102.471ZM747.156 109.529H754.215V116.588H747.156V109.529ZM740.097 123.647H747.156V130.706H740.097V123.647ZM747.156 123.647H754.215V130.706H747.156V123.647ZM754.215 123.647H761.274V130.706H754.215V123.647ZM768.333 116.588H775.391V123.647H768.333V116.588ZM768.333 109.529H775.391V116.588H768.333V109.529ZM761.274 109.529H768.333V116.588H761.274V109.529ZM754.215 109.529H761.274V116.588H754.215V109.529ZM761.274 116.588H768.333V123.647H761.274V116.588ZM775.391 109.529H782.45V116.588H775.391V109.529ZM782.45 109.529H789.509V116.588H782.45V109.529ZM782.45 116.588H789.509V123.647H782.45V116.588ZM775.391 116.588H782.45V123.647H775.391V116.588ZM782.45 130.706H789.509V137.765H782.45V130.706ZM782.45 137.765H789.509V144.824H782.45V137.765ZM782.45 144.824H789.509V151.882H782.45V144.824ZM782.45 151.882H789.509V158.941H782.45V151.882ZM789.509 151.882H796.568V158.941H789.509V151.882ZM789.509 158.941H796.568V166H789.509V158.941ZM796.568 158.941H803.627V166H796.568V158.941ZM782.45 158.941H789.509V166H782.45V158.941ZM796.568 116.588H803.627V123.647H796.568V116.588ZM796.568 109.529H803.627V116.588H796.568V109.529ZM796.568 102.471H803.627V109.529H796.568V102.471ZM796.568 95.4118H803.627V102.471H796.568V95.4118ZM796.568 67.1765H803.627V74.2353H796.568V67.1765ZM796.568 74.2353H803.627V81.2941H796.568V74.2353ZM789.509 74.2353H796.568V81.2941H789.509V74.2353ZM789.509 81.2941H796.568V88.3529H789.509V81.2941ZM789.509 88.3529H796.568V95.4118H789.509V88.3529ZM789.509 95.4118H796.568V102.471H789.509V95.4118ZM796.568 88.3529H803.627V95.4118H796.568V88.3529ZM796.568 81.2941H803.627V88.3529H796.568V81.2941ZM782.45 74.2353H789.509V81.2941H782.45V74.2353ZM782.45 81.2941H789.509V88.3529H782.45V81.2941ZM782.45 88.3529H789.509V95.4118H782.45V88.3529ZM782.45 95.4118H789.509V102.471H782.45V95.4118ZM789.509 130.706H796.568V137.765H789.509V130.706ZM789.509 137.765H796.568V144.824H789.509V137.765ZM789.509 144.824H796.568V151.882H789.509V144.824ZM796.568 144.824H803.627V151.882H796.568V144.824ZM796.568 137.765H803.627V144.824H796.568V137.765ZM796.568 130.706H803.627V137.765H796.568V130.706ZM796.568 123.647H803.627V130.706H796.568V123.647ZM796.568 151.882H803.627V158.941H796.568V151.882ZM718.921 60.1177H725.98V67.1765H718.921V60.1177ZM725.98 60.1177H733.038V67.1765H725.98V60.1177ZM733.038 60.1177H740.097V67.1765H733.038V60.1177ZM740.097 60.1177H747.156V67.1765H740.097V60.1177ZM747.156 60.1177H754.215V67.1765H747.156V60.1177ZM761.274 60.1177H768.333V67.1765H761.274V60.1177ZM768.333 60.1177H775.391V67.1765H768.333V60.1177ZM775.391 60.1177H782.45V67.1765H775.391V60.1177ZM782.45 60.1177H789.509V67.1765H782.45V60.1177ZM789.509 60.1177H796.568V67.1765H789.509V60.1177ZM789.509 67.1765H796.568V74.2353H789.509V67.1765ZM782.45 67.1765H789.509V74.2353H782.45V67.1765ZM775.391 67.1765H782.45V74.2353H775.391V67.1765ZM768.333 67.1765H775.391V74.2353H768.333V67.1765ZM733.038 67.1765H740.097V74.2353H733.038V67.1765ZM740.097 67.1765H747.156V74.2353H740.097V67.1765ZM725.98 53.0588H733.038V60.1177H725.98V53.0588ZM733.038 53.0588H740.097V60.1177H733.038V53.0588ZM747.156 53.0588H754.215V60.1177H747.156V53.0588ZM754.215 53.0588H761.274V60.1177H754.215V53.0588ZM761.274 53.0588H768.333V60.1177H761.274V53.0588ZM768.333 53.0588H775.391V60.1177H768.333V53.0588ZM775.391 53.0588H782.45V60.1177H775.391V53.0588ZM782.45 53.0588H789.509V60.1177H782.45V53.0588ZM789.509 53.0588H796.568V60.1177H789.509V53.0588ZM782.45 46H789.509V53.0588H782.45V46ZM775.391 46H782.45V53.0588H775.391V46ZM768.333 46H775.391V53.0588H768.333V46ZM761.274 46H768.333V53.0588H761.274V46ZM754.215 46H761.274V53.0588H754.215V46ZM740.097 53.0588H747.156V60.1177H740.097V53.0588ZM733.038 46H740.097V53.0588H733.038V46ZM740.097 46H747.156V53.0588H740.097V46ZM747.156 46H754.215V53.0588H747.156V46ZM747.156 38.9412H754.215V46H747.156V38.9412ZM740.097 38.9412H747.156V46H740.097V38.9412ZM754.215 38.9412H761.274V46H754.215V38.9412ZM761.274 38.9412H768.333V46H761.274V38.9412ZM768.333 38.9412H775.391V46H768.333V38.9412ZM775.391 38.9412H782.45V46H775.391V38.9412ZM747.156 31.8824H754.215V38.9412H747.156V31.8824ZM754.215 31.8824H761.274V38.9412H754.215V31.8824ZM761.274 31.8824H768.333V38.9412H761.274V31.8824ZM768.333 31.8824H775.391V38.9412H768.333V31.8824ZM754.215 24.8235H761.274V31.8824H754.215V24.8235ZM761.274 24.8235H768.333V31.8824H761.274V24.8235ZM796.568 60.1177H803.627V67.1765H796.568V60.1177ZM711.862 60.1177H718.921V67.1765H711.862V60.1177ZM718.921 53.0588H725.98V60.1177H718.921V53.0588ZM725.98 46H733.038V53.0588H725.98V46ZM733.038 38.9412H740.097V46H733.038V38.9412ZM740.097 31.8824H747.156V38.9412H740.097V31.8824ZM747.156 24.8235H754.215V31.8824H747.156V24.8235ZM775.391 74.2353H782.45V81.2941H775.391V74.2353ZM775.391 81.2941H782.45V88.3529H775.391V81.2941ZM775.391 88.3529H782.45V95.4118H775.391V88.3529ZM775.391 95.4118H782.45V102.471H775.391V95.4118ZM775.391 130.706H782.45V137.765H775.391V130.706ZM775.391 137.765H782.45V144.824H775.391V137.765ZM775.391 144.824H782.45V151.882H775.391V144.824ZM775.391 151.882H782.45V158.941H775.391V151.882ZM775.391 158.941H782.45V166H775.391V158.941ZM892.737 95.4118H899.795V102.471H892.737V95.4118ZM892.737 88.3529H899.795V95.4118H892.737V88.3529ZM892.737 81.2941H899.795V88.3529H892.737V81.2941ZM892.737 74.2353H899.795V81.2941H892.737V74.2353ZM892.737 67.1765H899.795V74.2353H892.737V67.1765ZM892.737 60.1177H899.795V67.1765H892.737V60.1177ZM892.737 53.0588H899.795V60.1177H892.737V53.0588ZM892.737 46H899.795V53.0588H892.737V46ZM885.678 46H892.737V53.0588H885.678V46ZM885.678 38.9412H892.737V46H885.678V38.9412ZM885.678 31.8824H892.737V38.9412H885.678V31.8824ZM878.619 31.8824H885.678V38.9412H878.619V31.8824ZM878.619 38.9412H885.678V46H878.619V38.9412ZM878.619 46H885.678V53.0588H878.619V46ZM878.619 53.0588H885.678V60.1177H878.619V53.0588ZM878.619 60.1177H885.678V67.1765H878.619V60.1177ZM878.619 67.1765H885.678V74.2353H878.619V67.1765ZM878.619 74.2353H885.678V81.2941H878.619V74.2353ZM878.619 81.2941H885.678V88.3529H878.619V81.2941ZM878.619 88.3529H885.678V95.4118H878.619V88.3529ZM878.619 95.4118H885.678V102.471H878.619V95.4118ZM878.619 102.471H885.678V109.529H878.619V102.471ZM878.619 109.529H885.678V116.588H878.619V109.529ZM885.678 102.471H892.737V109.529H885.678V102.471ZM885.678 95.4118H892.737V102.471H885.678V95.4118ZM885.678 88.3529H892.737V95.4118H885.678V88.3529ZM885.678 81.2941H892.737V88.3529H885.678V81.2941ZM885.678 74.2353H892.737V81.2941H885.678V74.2353ZM885.678 67.1765H892.737V74.2353H885.678V67.1765ZM885.678 60.1177H892.737V67.1765H885.678V60.1177ZM885.678 53.0588H892.737V60.1177H885.678V53.0588ZM871.56 53.0588H878.619V60.1177H871.56V53.0588ZM864.501 53.0588H871.56V60.1177H864.501V53.0588ZM871.56 46H878.619V53.0588H871.56V46ZM864.501 46H871.56V53.0588H864.501V46ZM857.442 46H864.501V53.0588H857.442V46ZM850.384 46H857.442V53.0588H850.384V46ZM843.325 46H850.384V53.0588H843.325V46ZM836.266 46H843.325V53.0588H836.266V46ZM829.207 46H836.266V53.0588H829.207V46ZM829.207 53.0588H836.266V60.1177H829.207V53.0588ZM829.207 60.1177H836.266V67.1765H829.207V60.1177ZM829.207 67.1765H836.266V74.2353H829.207V67.1765ZM829.207 74.2353H836.266V81.2941H829.207V74.2353ZM829.207 81.2941H836.266V88.3529H829.207V81.2941ZM829.207 88.3529H836.266V95.4118H829.207V88.3529ZM829.207 95.4118H836.266V102.471H829.207V95.4118ZM836.266 95.4118H843.325V102.471H836.266V95.4118ZM836.266 102.471H843.325V109.529H836.266V102.471ZM843.325 102.471H850.384V109.529H843.325V102.471ZM850.384 102.471H857.442V109.529H850.384V102.471ZM857.442 102.471H864.501V109.529H857.442V102.471ZM864.501 102.471H871.56V109.529H864.501V102.471ZM864.501 95.4118H871.56V102.471H864.501V95.4118ZM857.442 95.4118H864.501V102.471H857.442V95.4118ZM850.384 95.4118H857.442V102.471H850.384V95.4118ZM843.325 95.4118H850.384V102.471H843.325V95.4118ZM871.56 95.4118H878.619V102.471H871.56V95.4118ZM871.56 88.3529H878.619V95.4118H871.56V88.3529ZM864.501 88.3529H871.56V95.4118H864.501V88.3529ZM871.56 81.2941H878.619V88.3529H871.56V81.2941ZM871.56 60.1177H878.619V67.1765H871.56V60.1177ZM871.56 67.1765H878.619V74.2353H871.56V67.1765ZM871.56 74.2353H878.619V81.2941H871.56V74.2353ZM871.56 102.471H878.619V109.529H871.56V102.471ZM871.56 109.529H878.619V116.588H871.56V109.529ZM871.56 116.588H878.619V123.647H871.56V116.588ZM864.501 116.588H871.56V123.647H864.501V116.588ZM857.442 116.588H864.501V123.647H857.442V116.588ZM850.384 116.588H857.442V123.647H850.384V116.588ZM843.325 116.588H850.384V123.647H843.325V116.588ZM843.325 109.529H850.384V116.588H843.325V109.529ZM836.266 109.529H843.325V116.588H836.266V109.529ZM836.266 116.588H843.325V123.647H836.266V116.588ZM850.384 109.529H857.442V116.588H850.384V109.529ZM857.442 109.529H864.501V116.588H857.442V109.529ZM864.501 109.529H871.56V116.588H864.501V109.529ZM871.56 24.8235H878.619V31.8824H871.56V24.8235ZM871.56 31.8824H878.619V38.9412H871.56V31.8824ZM871.56 38.9412H878.619V46H871.56V38.9412ZM864.501 38.9412H871.56V46H864.501V38.9412ZM864.501 31.8824H871.56V38.9412H864.501V31.8824ZM864.501 24.8235H871.56V31.8824H864.501V24.8235ZM857.442 24.8235H864.501V31.8824H857.442V24.8235ZM850.384 24.8235H857.442V31.8824H850.384V24.8235ZM843.325 24.8235H850.384V31.8824H843.325V24.8235ZM836.266 24.8235H843.325V31.8824H836.266V24.8235ZM829.207 24.8235H836.266V31.8824H829.207V24.8235ZM822.148 24.8235H829.207V31.8824H822.148V24.8235ZM815.09 24.8235H822.148V31.8824H815.09V24.8235ZM808.031 24.8235H815.09V31.8824H808.031V24.8235ZM808.031 31.8824H815.09V38.9412H808.031V31.8824ZM808.031 38.9412H815.09V46H808.031V38.9412ZM808.031 46H815.09V53.0588H808.031V46ZM815.09 46H822.148V53.0588H815.09V46ZM815.09 38.9412H822.148V46H815.09V38.9412ZM822.148 38.9412H829.207V46H822.148V38.9412ZM829.207 38.9412H836.266V46H829.207V38.9412ZM836.266 38.9412H843.325V46H836.266V38.9412ZM843.325 38.9412H850.384V46H843.325V38.9412ZM850.384 38.9412H857.442V46H850.384V38.9412ZM857.442 38.9412H864.501V46H857.442V38.9412ZM857.442 31.8824H864.501V38.9412H857.442V31.8824ZM850.384 31.8824H857.442V38.9412H850.384V31.8824ZM843.325 31.8824H850.384V38.9412H843.325V31.8824ZM836.266 31.8824H843.325V38.9412H836.266V31.8824ZM829.207 31.8824H836.266V38.9412H829.207V31.8824ZM822.148 31.8824H829.207V38.9412H822.148V31.8824ZM815.09 53.0588H822.148V60.1177H815.09V53.0588ZM815.09 60.1177H822.148V67.1765H815.09V60.1177ZM815.09 31.8824H822.148V38.9412H815.09V31.8824ZM822.148 46H829.207V53.0588H822.148V46ZM822.148 53.0588H829.207V60.1177H822.148V53.0588ZM822.148 60.1177H829.207V67.1765H822.148V60.1177ZM822.148 67.1765H829.207V74.2353H822.148V67.1765ZM822.148 74.2353H829.207V81.2941H822.148V74.2353ZM822.148 81.2941H829.207V88.3529H822.148V81.2941ZM822.148 88.3529H829.207V95.4118H822.148V88.3529ZM822.148 95.4118H829.207V102.471H822.148V95.4118ZM815.09 95.4118H822.148V102.471H815.09V95.4118ZM815.09 88.3529H822.148V95.4118H815.09V88.3529ZM815.09 81.2941H822.148V88.3529H815.09V81.2941ZM815.09 74.2353H822.148V81.2941H815.09V74.2353ZM808.031 67.1765H815.09V74.2353H808.031V67.1765ZM808.031 60.1177H815.09V67.1765H808.031V60.1177ZM808.031 53.0588H815.09V60.1177H808.031V53.0588ZM808.031 74.2353H815.09V81.2941H808.031V74.2353ZM808.031 81.2941H815.09V88.3529H808.031V81.2941ZM815.09 67.1765H822.148V74.2353H815.09V67.1765ZM808.031 88.3529H815.09V95.4118H808.031V88.3529ZM808.031 95.4118H815.09V102.471H808.031V95.4118ZM808.031 102.471H815.09V109.529H808.031V102.471ZM808.031 109.529H815.09V116.588H808.031V109.529ZM815.09 109.529H822.148V116.588H815.09V109.529ZM822.148 109.529H829.207V116.588H822.148V109.529ZM829.207 109.529H836.266V116.588H829.207V109.529ZM829.207 116.588H836.266V123.647H829.207V116.588ZM822.148 116.588H829.207V123.647H822.148V116.588ZM815.09 116.588H822.148V123.647H815.09V116.588ZM808.031 116.588H815.09V123.647H808.031V116.588ZM815.09 102.471H822.148V109.529H815.09V102.471ZM822.148 102.471H829.207V109.529H822.148V102.471ZM829.207 102.471H836.266V109.529H829.207V102.471ZM808.031 123.647H815.09V130.706H808.031V123.647ZM808.031 130.706H815.09V137.765H808.031V130.706ZM808.031 137.765H815.09V144.824H808.031V137.765ZM808.031 144.824H815.09V151.882H808.031V144.824ZM808.031 151.882H815.09V158.941H808.031V151.882ZM808.031 158.941H815.09V166H808.031V158.941ZM815.09 158.941H822.148V166H815.09V158.941ZM822.148 158.941H829.207V166H822.148V158.941ZM829.207 158.941H836.266V166H829.207V158.941ZM829.207 151.882H836.266V158.941H829.207V151.882ZM829.207 144.824H836.266V151.882H829.207V144.824ZM829.207 137.765H836.266V144.824H829.207V137.765ZM829.207 130.706H836.266V137.765H829.207V130.706ZM829.207 123.647H836.266V130.706H829.207V123.647ZM822.148 123.647H829.207V130.706H822.148V123.647ZM815.09 123.647H822.148V130.706H815.09V123.647ZM815.09 130.706H822.148V137.765H815.09V130.706ZM815.09 137.765H822.148V144.824H815.09V137.765ZM815.09 144.824H822.148V151.882H815.09V144.824ZM815.09 151.882H822.148V158.941H815.09V151.882ZM822.148 151.882H829.207V158.941H822.148V151.882ZM822.148 144.824H829.207V151.882H822.148V144.824ZM822.148 137.765H829.207V144.824H822.148V137.765ZM822.148 130.706H829.207V137.765H822.148V130.706ZM892.737 130.706H899.795V137.765H892.737V130.706ZM892.737 137.765H899.795V144.824H892.737V137.765ZM892.737 144.824H899.795V151.882H892.737V144.824ZM892.737 151.882H899.795V158.941H892.737V151.882ZM892.737 158.941H899.795V166H892.737V158.941ZM885.678 158.941H892.737V166H885.678V158.941ZM878.619 158.941H885.678V166H878.619V158.941ZM871.56 158.941H878.619V166H871.56V158.941ZM871.56 151.882H878.619V158.941H871.56V151.882ZM871.56 144.824H878.619V151.882H871.56V144.824ZM871.56 137.765H878.619V144.824H871.56V137.765ZM878.619 137.765H885.678V144.824H878.619V137.765ZM885.678 130.706H892.737V137.765H885.678V130.706ZM885.678 137.765H892.737V144.824H885.678V137.765ZM885.678 144.824H892.737V151.882H885.678V144.824ZM878.619 144.824H885.678V151.882H878.619V144.824ZM878.619 151.882H885.678V158.941H878.619V151.882ZM885.678 151.882H892.737V158.941H885.678V151.882ZM878.619 130.706H885.678V137.765H878.619V130.706ZM871.56 130.706H878.619V137.765H871.56V130.706ZM871.56 123.647H878.619V130.706H871.56V123.647ZM878.619 123.647H885.678V130.706H878.619V123.647ZM892.737 123.647H899.795V130.706H892.737V123.647ZM885.678 123.647H892.737V130.706H885.678V123.647ZM885.678 116.588H892.737V123.647H885.678V116.588ZM878.619 116.588H885.678V123.647H878.619V116.588ZM857.442 123.647H864.501V130.706H857.442V123.647ZM864.501 123.647H871.56V130.706H864.501V123.647ZM864.501 130.706H871.56V137.765H864.501V130.706ZM904.199 24.8235H911.258V31.8824H904.199V24.8235ZM911.258 24.8235H918.317V31.8824H911.258V24.8235ZM918.317 24.8235H925.376V31.8824H918.317V24.8235ZM918.317 31.8824H925.376V38.9412H918.317V31.8824ZM925.376 31.8824H932.435V38.9412H925.376V31.8824ZM925.376 38.9412H932.435V46H925.376V38.9412ZM925.376 46H932.435V53.0588H925.376V46ZM925.376 24.8235H932.435V31.8824H925.376V24.8235ZM911.258 31.8824H918.317V38.9412H911.258V31.8824ZM904.199 31.8824H911.258V38.9412H904.199V31.8824ZM904.199 38.9412H911.258V46H904.199V38.9412ZM904.199 46H911.258V53.0588H904.199V46ZM904.199 53.0588H911.258V60.1177H904.199V53.0588ZM904.199 60.1177H911.258V67.1765H904.199V60.1177ZM904.199 67.1765H911.258V74.2353H904.199V67.1765ZM911.258 74.2353H918.317V81.2941H911.258V74.2353ZM918.317 74.2353H925.376V81.2941H918.317V74.2353ZM925.376 74.2353H932.435V81.2941H925.376V74.2353ZM925.376 67.1765H932.435V74.2353H925.376V67.1765ZM925.376 60.1177H932.435V67.1765H925.376V60.1177ZM925.376 53.0588H932.435V60.1177H925.376V53.0588ZM918.317 53.0588H925.376V60.1177H918.317V53.0588ZM918.317 46H925.376V53.0588H918.317V46ZM918.317 38.9412H925.376V46H918.317V38.9412ZM911.258 38.9412H918.317V46H911.258V38.9412ZM911.258 46H918.317V53.0588H911.258V46ZM911.258 53.0588H918.317V60.1177H911.258V53.0588ZM911.258 60.1177H918.317V67.1765H911.258V60.1177ZM911.258 67.1765H918.317V74.2353H911.258V67.1765ZM918.317 67.1765H925.376V74.2353H918.317V67.1765ZM918.317 60.1177H925.376V67.1765H918.317V60.1177ZM904.199 74.2353H911.258V81.2941H904.199V74.2353ZM904.199 81.2941H911.258V88.3529H904.199V81.2941ZM904.199 88.3529H911.258V95.4118H904.199V88.3529ZM904.199 95.4118H911.258V102.471H904.199V95.4118ZM911.258 95.4118H918.317V102.471H911.258V95.4118ZM911.258 102.471H918.317V109.529H911.258V102.471ZM911.258 109.529H918.317V116.588H911.258V109.529ZM918.317 109.529H925.376V116.588H918.317V109.529ZM918.317 102.471H925.376V109.529H918.317V102.471ZM925.376 102.471H932.435V109.529H925.376V102.471ZM925.376 95.4118H932.435V102.471H925.376V95.4118ZM925.376 88.3529H932.435V95.4118H925.376V88.3529ZM925.376 81.2941H932.435V88.3529H925.376V81.2941ZM918.317 81.2941H925.376V88.3529H918.317V81.2941ZM911.258 81.2941H918.317V88.3529H911.258V81.2941ZM911.258 88.3529H918.317V95.4118H911.258V88.3529ZM918.317 95.4118H925.376V102.471H918.317V95.4118ZM918.317 88.3529H925.376V95.4118H918.317V88.3529ZM904.199 102.471H911.258V109.529H904.199V102.471ZM904.199 109.529H911.258V116.588H904.199V109.529ZM904.199 116.588H911.258V123.647H904.199V116.588ZM904.199 123.647H911.258V130.706H904.199V123.647ZM904.199 130.706H911.258V137.765H904.199V130.706ZM904.199 137.765H911.258V144.824H904.199V137.765ZM904.199 144.824H911.258V151.882H904.199V144.824ZM904.199 151.882H911.258V158.941H904.199V151.882ZM911.258 151.882H918.317V158.941H911.258V151.882ZM911.258 158.941H918.317V166H911.258V158.941ZM904.199 158.941H911.258V166H904.199V158.941ZM918.317 158.941H925.376V166H918.317V158.941ZM925.376 158.941H932.435V166H925.376V158.941ZM925.376 151.882H932.435V158.941H925.376V151.882ZM925.376 144.824H932.435V151.882H925.376V144.824ZM925.376 137.765H932.435V144.824H925.376V137.765ZM925.376 130.706H932.435V137.765H925.376V130.706ZM925.376 123.647H932.435V130.706H925.376V123.647ZM925.376 116.588H932.435V123.647H925.376V116.588ZM918.317 116.588H925.376V123.647H918.317V116.588ZM925.376 109.529H932.435V116.588H925.376V109.529ZM918.317 123.647H925.376V130.706H918.317V123.647ZM918.317 130.706H925.376V137.765H918.317V130.706ZM918.317 137.765H925.376V144.824H918.317V137.765ZM918.317 144.824H925.376V151.882H918.317V144.824ZM918.317 151.882H925.376V158.941H918.317V151.882ZM911.258 137.765H918.317V144.824H911.258V137.765ZM911.258 130.706H918.317V137.765H911.258V130.706ZM911.258 123.647H918.317V130.706H911.258V123.647ZM911.258 116.588H918.317V123.647H911.258V116.588ZM911.258 144.824H918.317V151.882H911.258V144.824ZM932.435 102.471H939.494V109.529H932.435V102.471ZM939.494 102.471H946.552V109.529H939.494V102.471ZM946.552 102.471H953.611V109.529H946.552V102.471ZM953.611 102.471H960.67V109.529H953.611V102.471ZM953.611 109.529H960.67V116.588H953.611V109.529ZM946.552 109.529H953.611V116.588H946.552V109.529ZM953.611 116.588H960.67V123.647H953.611V116.588ZM960.67 116.588H967.729V123.647H960.67V116.588ZM960.67 123.647H967.729V130.706H960.67V123.647ZM960.67 130.706H967.729V137.765H960.67V130.706ZM960.67 137.765H967.729V144.824H960.67V137.765ZM960.67 144.824H967.729V151.882H960.67V144.824ZM960.67 151.882H967.729V158.941H960.67V151.882ZM960.67 158.941H967.729V166H960.67V158.941ZM967.729 158.941H974.788V166H967.729V158.941ZM974.788 158.941H981.847V166H974.788V158.941ZM981.847 158.941H988.905V166H981.847V158.941ZM981.847 151.882H988.905V158.941H981.847V151.882ZM981.847 144.824H988.905V151.882H981.847V144.824ZM981.847 137.765H988.905V144.824H981.847V137.765ZM981.847 130.706H988.905V137.765H981.847V130.706ZM981.847 116.588H988.905V123.647H981.847V116.588ZM981.847 123.647H988.905V130.706H981.847V123.647ZM974.788 151.882H981.847V158.941H974.788V151.882ZM967.729 151.882H974.788V158.941H967.729V151.882ZM967.729 144.824H974.788V151.882H967.729V144.824ZM967.729 137.765H974.788V144.824H967.729V137.765ZM974.788 137.765H981.847V144.824H974.788V137.765ZM974.788 130.706H981.847V137.765H974.788V130.706ZM974.788 123.647H981.847V130.706H974.788V123.647ZM967.729 123.647H974.788V130.706H967.729V123.647ZM967.729 130.706H974.788V137.765H967.729V130.706ZM974.788 144.824H981.847V151.882H974.788V144.824ZM974.788 116.588H981.847V123.647H974.788V116.588ZM974.788 109.529H981.847V116.588H974.788V109.529ZM967.729 109.529H974.788V116.588H967.729V109.529ZM967.729 116.588H974.788V123.647H967.729V116.588ZM967.729 102.471H974.788V109.529H967.729V102.471ZM960.67 102.471H967.729V109.529H960.67V102.471ZM960.67 109.529H967.729V116.588H960.67V109.529ZM960.67 95.4118H967.729V102.471H960.67V95.4118ZM960.67 88.3529H967.729V95.4118H960.67V88.3529ZM967.729 88.3529H974.788V95.4118H967.729V88.3529ZM967.729 81.2941H974.788V88.3529H967.729V81.2941ZM974.788 81.2941H981.847V88.3529H974.788V81.2941ZM974.788 74.2353H981.847V81.2941H974.788V74.2353ZM981.847 74.2353H988.905V81.2941H981.847V74.2353ZM967.729 74.2353H974.788V81.2941H967.729V74.2353ZM967.729 67.1765H974.788V74.2353H967.729V67.1765ZM960.67 67.1765H967.729V74.2353H960.67V67.1765ZM953.611 67.1765H960.67V74.2353H953.611V67.1765ZM960.67 60.1177H967.729V67.1765H960.67V60.1177ZM967.729 60.1177H974.788V67.1765H967.729V60.1177ZM974.788 60.1177H981.847V67.1765H974.788V60.1177ZM981.847 60.1177H988.905V67.1765H981.847V60.1177ZM981.847 67.1765H988.905V74.2353H981.847V67.1765ZM974.788 67.1765H981.847V74.2353H974.788V67.1765ZM960.67 74.2353H967.729V81.2941H960.67V74.2353ZM960.67 81.2941H967.729V88.3529H960.67V81.2941ZM953.611 88.3529H960.67V95.4118H953.611V88.3529ZM953.611 81.2941H960.67V88.3529H953.611V81.2941ZM953.611 74.2353H960.67V81.2941H953.611V74.2353ZM946.552 74.2353H953.611V81.2941H946.552V74.2353ZM946.552 81.2941H953.611V88.3529H946.552V81.2941ZM946.552 88.3529H953.611V95.4118H946.552V88.3529ZM946.552 95.4118H953.611V102.471H946.552V95.4118ZM939.494 95.4118H946.552V102.471H939.494V95.4118ZM939.494 88.3529H946.552V95.4118H939.494V88.3529ZM932.435 88.3529H939.494V95.4118H932.435V88.3529ZM939.494 81.2941H946.552V88.3529H939.494V81.2941ZM932.435 81.2941H939.494V88.3529H932.435V81.2941ZM932.435 95.4118H939.494V102.471H932.435V95.4118ZM953.611 95.4118H960.67V102.471H953.611V95.4118ZM960.67 24.8235H967.729V31.8824H960.67V24.8235ZM967.729 24.8235H974.788V31.8824H967.729V24.8235ZM974.788 24.8235H981.847V31.8824H974.788V24.8235ZM981.847 24.8235H988.905V31.8824H981.847V24.8235ZM981.847 31.8824H988.905V38.9412H981.847V31.8824ZM981.847 38.9412H988.905V46H981.847V38.9412ZM981.847 46H988.905V53.0588H981.847V46ZM981.847 53.0588H988.905V60.1177H981.847V53.0588ZM974.788 53.0588H981.847V60.1177H974.788V53.0588ZM967.729 53.0588H974.788V60.1177H967.729V53.0588ZM960.67 53.0588H967.729V60.1177H960.67V53.0588ZM960.67 46H967.729V53.0588H960.67V46ZM960.67 38.9412H967.729V46H960.67V38.9412ZM960.67 31.8824H967.729V38.9412H960.67V31.8824ZM967.729 31.8824H974.788V38.9412H967.729V31.8824ZM974.788 31.8824H981.847V38.9412H974.788V31.8824ZM974.788 38.9412H981.847V46H974.788V38.9412ZM974.788 46H981.847V53.0588H974.788V46ZM967.729 46H974.788V53.0588H967.729V46ZM967.729 38.9412H974.788V46H967.729V38.9412ZM993.337 158.941H1000.4V166H993.337V158.941ZM1000.4 158.941H1007.45V166H1000.4V158.941ZM1007.45 158.941H1014.51V166H1007.45V158.941ZM1014.51 158.941H1021.57V166H1014.51V158.941ZM1014.51 151.882H1021.57V158.941H1014.51V151.882ZM1007.45 151.882H1014.51V158.941H1007.45V151.882ZM1000.4 151.882H1007.45V158.941H1000.4V151.882ZM993.337 151.882H1000.4V158.941H993.337V151.882ZM993.337 144.824H1000.4V151.882H993.337V144.824ZM993.337 137.765H1000.4V144.824H993.337V137.765ZM993.337 130.706H1000.4V137.765H993.337V130.706ZM993.337 123.647H1000.4V130.706H993.337V123.647ZM993.337 116.588H1000.4V123.647H993.337V116.588ZM993.337 109.529H1000.4V116.588H993.337V109.529ZM993.337 102.471H1000.4V109.529H993.337V102.471ZM1000.4 102.471H1007.45V109.529H1000.4V102.471ZM1000.4 95.4118H1007.45V102.471H1000.4V95.4118ZM1000.4 88.3529H1007.45V95.4118H1000.4V88.3529ZM1007.45 88.3529H1014.51V95.4118H1007.45V88.3529ZM1007.45 95.4118H1014.51V102.471H1007.45V95.4118ZM1014.51 95.4118H1021.57V102.471H1014.51V95.4118ZM1014.51 102.471H1021.57V109.529H1014.51V102.471ZM1014.51 109.529H1021.57V116.588H1014.51V109.529ZM1014.51 116.588H1021.57V123.647H1014.51V116.588ZM1014.51 123.647H1021.57V130.706H1014.51V123.647ZM1014.51 130.706H1021.57V137.765H1014.51V130.706ZM1014.51 137.765H1021.57V144.824H1014.51V137.765ZM1014.51 144.824H1021.57V151.882H1014.51V144.824ZM1007.45 144.824H1014.51V151.882H1007.45V144.824ZM1007.45 137.765H1014.51V144.824H1007.45V137.765ZM1007.45 130.706H1014.51V137.765H1007.45V130.706ZM1007.45 123.647H1014.51V130.706H1007.45V123.647ZM1007.45 116.588H1014.51V123.647H1007.45V116.588ZM1007.45 109.529H1014.51V116.588H1007.45V109.529ZM1007.45 102.471H1014.51V109.529H1007.45V102.471ZM1000.4 109.529H1007.45V116.588H1000.4V109.529ZM1000.4 116.588H1007.45V123.647H1000.4V116.588ZM1000.4 123.647H1007.45V130.706H1000.4V123.647ZM1000.4 130.706H1007.45V137.765H1000.4V130.706ZM1000.4 137.765H1007.45V144.824H1000.4V137.765ZM1000.4 144.824H1007.45V151.882H1000.4V144.824ZM993.337 24.8235H1000.4V31.8824H993.337V24.8235ZM993.337 31.8824H1000.4V38.9412H993.337V31.8824ZM993.337 46H1000.4V53.0588H993.337V46ZM993.337 53.0588H1000.4V60.1177H993.337V53.0588ZM993.337 60.1177H1000.4V67.1765H993.337V60.1177ZM993.337 67.1765H1000.4V74.2353H993.337V67.1765ZM993.337 74.2353H1000.4V81.2941H993.337V74.2353ZM993.337 81.2941H1000.4V88.3529H993.337V81.2941ZM993.337 88.3529H1000.4V95.4118H993.337V88.3529ZM993.337 95.4118H1000.4V102.471H993.337V95.4118ZM1000.4 67.1765H1007.45V74.2353H1000.4V67.1765ZM1000.4 60.1177H1007.45V67.1765H1000.4V60.1177ZM1000.4 53.0588H1007.45V60.1177H1000.4V53.0588ZM1000.4 46H1007.45V53.0588H1000.4V46ZM1000.4 38.9412H1007.45V46H1000.4V38.9412ZM993.337 38.9412H1000.4V46H993.337V38.9412ZM1000.4 24.8235H1007.45V31.8824H1000.4V24.8235ZM1007.45 24.8235H1014.51V31.8824H1007.45V24.8235ZM1007.45 31.8824H1014.51V38.9412H1007.45V31.8824ZM1014.51 38.9412H1021.57V46H1014.51V38.9412ZM1014.51 31.8824H1021.57V38.9412H1014.51V31.8824ZM1014.51 24.8235H1021.57V31.8824H1014.51V24.8235ZM1014.51 46H1021.57V53.0588H1014.51V46ZM1014.51 53.0588H1021.57V60.1177H1014.51V53.0588ZM1014.51 60.1177H1021.57V67.1765H1014.51V60.1177ZM1014.51 67.1765H1021.57V74.2353H1014.51V67.1765ZM1014.51 74.2353H1021.57V81.2941H1014.51V74.2353ZM1014.51 81.2941H1021.57V88.3529H1014.51V81.2941ZM1014.51 88.3529H1021.57V95.4118H1014.51V88.3529ZM1007.45 81.2941H1014.51V88.3529H1007.45V81.2941ZM1007.45 74.2353H1014.51V81.2941H1007.45V74.2353ZM1007.45 67.1765H1014.51V74.2353H1007.45V67.1765ZM1000.4 74.2353H1007.45V81.2941H1000.4V74.2353ZM1000.4 81.2941H1007.45V88.3529H1000.4V81.2941ZM1007.45 60.1177H1014.51V67.1765H1007.45V60.1177ZM1007.45 38.9412H1014.51V46H1007.45V38.9412ZM1007.45 46H1014.51V53.0588H1007.45V46ZM1007.45 53.0588H1014.51V60.1177H1007.45V53.0588ZM1000.4 31.8824H1007.45V38.9412H1000.4V31.8824ZM1021.57 158.941H1028.63V166H1021.57V158.941ZM1021.57 151.882H1028.63V158.941H1021.57V151.882ZM1021.57 144.824H1028.63V151.882H1021.57V144.824ZM1021.57 137.765H1028.63V144.824H1021.57V137.765ZM1028.63 137.765H1035.69V144.824H1028.63V137.765ZM1035.69 137.765H1042.75V144.824H1035.69V137.765ZM1042.75 137.765H1049.81V144.824H1042.75V137.765ZM1049.81 137.765H1056.87V144.824H1049.81V137.765ZM1049.81 151.882H1056.87V158.941H1049.81V151.882ZM1042.75 151.882H1049.81V158.941H1042.75V151.882ZM1035.69 151.882H1042.75V158.941H1035.69V151.882ZM1028.63 151.882H1035.69V158.941H1028.63V151.882ZM1028.63 144.824H1035.69V151.882H1028.63V144.824ZM1035.69 144.824H1042.75V151.882H1035.69V144.824ZM1042.75 144.824H1049.81V151.882H1042.75V144.824ZM1049.81 144.824H1056.87V151.882H1049.81V144.824ZM1049.81 158.941H1056.87V166H1049.81V158.941ZM1042.75 158.941H1049.81V166H1042.75V158.941ZM1035.69 158.941H1042.75V166H1035.69V158.941ZM1028.63 158.941H1035.69V166H1028.63V158.941ZM1021.57 24.8235H1028.63V31.8824H1021.57V24.8235ZM1028.63 24.8235H1035.69V31.8824H1028.63V24.8235ZM1035.69 24.8235H1042.75V31.8824H1035.69V24.8235ZM1042.75 24.8235H1049.81V31.8824H1042.75V24.8235ZM1049.81 24.8235H1056.87V31.8824H1049.81V24.8235ZM1049.81 31.8824H1056.87V38.9412H1049.81V31.8824ZM1049.81 38.9412H1056.87V46H1049.81V38.9412ZM1049.81 46H1056.87V53.0588H1049.81V46ZM1042.75 46H1049.81V53.0588H1042.75V46ZM1035.69 46H1042.75V53.0588H1035.69V46ZM1028.63 46H1035.69V53.0588H1028.63V46ZM1021.57 46H1028.63V53.0588H1021.57V46ZM1021.57 38.9412H1028.63V46H1021.57V38.9412ZM1021.57 31.8824H1028.63V38.9412H1021.57V31.8824ZM1028.63 31.8824H1035.69V38.9412H1028.63V31.8824ZM1035.69 31.8824H1042.75V38.9412H1035.69V31.8824ZM1042.75 31.8824H1049.81V38.9412H1042.75V31.8824ZM1042.75 38.9412H1049.81V46H1042.75V38.9412ZM1035.69 38.9412H1042.75V46H1035.69V38.9412ZM1028.63 38.9412H1035.69V46H1028.63V38.9412ZM1056.87 24.8235H1063.93V31.8824H1056.87V24.8235ZM1063.93 24.8235H1070.98V31.8824H1063.93V24.8235ZM1070.98 24.8235H1078.04V31.8824H1070.98V24.8235ZM1070.98 31.8824H1078.04V38.9412H1070.98V31.8824ZM1070.98 38.9412H1078.04V46H1070.98V38.9412ZM1070.98 46H1078.04V53.0588H1070.98V46ZM1063.93 46H1070.98V53.0588H1063.93V46ZM1056.87 46H1063.93V53.0588H1056.87V46ZM1056.87 38.9412H1063.93V46H1056.87V38.9412ZM1056.87 31.8824H1063.93V38.9412H1056.87V31.8824ZM1063.93 31.8824H1070.98V38.9412H1063.93V31.8824ZM1063.93 38.9412H1070.98V46H1063.93V38.9412ZM1056.87 137.765H1063.93V144.824H1056.87V137.765ZM1063.93 137.765H1070.98V144.824H1063.93V137.765ZM1070.98 137.765H1078.04V144.824H1070.98V137.765ZM1070.98 144.824H1078.04V151.882H1070.98V144.824ZM1070.98 151.882H1078.04V158.941H1070.98V151.882ZM1070.98 158.941H1078.04V166H1070.98V158.941ZM1063.93 158.941H1070.98V166H1063.93V158.941ZM1056.87 158.941H1063.93V166H1056.87V158.941ZM1056.87 151.882H1063.93V158.941H1056.87V151.882ZM1056.87 144.824H1063.93V151.882H1056.87V144.824ZM1063.93 144.824H1070.98V151.882H1063.93V144.824ZM1063.93 151.882H1070.98V158.941H1063.93V151.882ZM1021.57 88.3529H1028.63V95.4118H1021.57V88.3529ZM1021.57 81.2941H1028.63V88.3529H1021.57V81.2941ZM1021.57 95.4118H1028.63V102.471H1021.57V95.4118ZM1021.57 102.471H1028.63V109.529H1021.57V102.471ZM1028.63 102.471H1035.69V109.529H1028.63V102.471ZM1035.69 102.471H1042.75V109.529H1035.69V102.471ZM1042.75 102.471H1049.81V109.529H1042.75V102.471ZM1049.81 102.471H1056.87V109.529H1049.81V102.471ZM1049.81 95.4118H1056.87V102.471H1049.81V95.4118ZM1049.81 88.3529H1056.87V95.4118H1049.81V88.3529ZM1049.81 81.2941H1056.87V88.3529H1049.81V81.2941ZM1042.75 81.2941H1049.81V88.3529H1042.75V81.2941ZM1035.69 81.2941H1042.75V88.3529H1035.69V81.2941ZM1028.63 81.2941H1035.69V88.3529H1028.63V81.2941ZM1028.63 88.3529H1035.69V95.4118H1028.63V88.3529ZM1028.63 95.4118H1035.69V102.471H1028.63V95.4118ZM1035.69 95.4118H1042.75V102.471H1035.69V95.4118ZM1042.75 95.4118H1049.81V102.471H1042.75V95.4118ZM1042.75 88.3529H1049.81V95.4118H1042.75V88.3529ZM1035.69 88.3529H1042.75V95.4118H1035.69V88.3529ZM1056.87 81.2941H1063.93V88.3529H1056.87V81.2941ZM1056.87 88.3529H1063.93V95.4118H1056.87V88.3529ZM1056.87 95.4118H1063.93V102.471H1056.87V95.4118ZM1056.87 102.471H1063.93V109.529H1056.87V102.471ZM1110.71 158.941H1117.77V166H1110.71V158.941ZM1117.77 158.941H1124.83V166H1117.77V158.941ZM1124.83 158.941H1131.89V166H1124.83V158.941ZM1131.89 158.941H1138.95V166H1131.89V158.941ZM1131.89 151.882H1138.95V158.941H1131.89V151.882ZM1124.83 151.882H1131.89V158.941H1124.83V151.882ZM1117.77 151.882H1124.83V158.941H1117.77V151.882ZM1110.71 151.882H1117.77V158.941H1110.71V151.882ZM1110.71 144.824H1117.77V151.882H1110.71V144.824ZM1110.71 137.765H1117.77V144.824H1110.71V137.765ZM1110.71 130.706H1117.77V137.765H1110.71V130.706ZM1110.71 123.647H1117.77V130.706H1110.71V123.647ZM1110.71 116.588H1117.77V123.647H1110.71V116.588ZM1110.71 109.529H1117.77V116.588H1110.71V109.529ZM1110.71 102.471H1117.77V109.529H1110.71V102.471ZM1117.77 102.471H1124.83V109.529H1117.77V102.471ZM1117.77 95.4118H1124.83V102.471H1117.77V95.4118ZM1117.77 88.3529H1124.83V95.4118H1117.77V88.3529ZM1124.83 88.3529H1131.89V95.4118H1124.83V88.3529ZM1124.83 95.4118H1131.89V102.471H1124.83V95.4118ZM1131.89 95.4118H1138.95V102.471H1131.89V95.4118ZM1131.89 102.471H1138.95V109.529H1131.89V102.471ZM1131.89 109.529H1138.95V116.588H1131.89V109.529ZM1131.89 116.588H1138.95V123.647H1131.89V116.588ZM1131.89 123.647H1138.95V130.706H1131.89V123.647ZM1131.89 130.706H1138.95V137.765H1131.89V130.706ZM1131.89 137.765H1138.95V144.824H1131.89V137.765ZM1131.89 144.824H1138.95V151.882H1131.89V144.824ZM1124.83 144.824H1131.89V151.882H1124.83V144.824ZM1124.83 137.765H1131.89V144.824H1124.83V137.765ZM1124.83 130.706H1131.89V137.765H1124.83V130.706ZM1124.83 123.647H1131.89V130.706H1124.83V123.647ZM1124.83 116.588H1131.89V123.647H1124.83V116.588ZM1124.83 109.529H1131.89V116.588H1124.83V109.529ZM1124.83 102.471H1131.89V109.529H1124.83V102.471ZM1117.77 109.529H1124.83V116.588H1117.77V109.529ZM1117.77 116.588H1124.83V123.647H1117.77V116.588ZM1117.77 123.647H1124.83V130.706H1117.77V123.647ZM1117.77 130.706H1124.83V137.765H1117.77V130.706ZM1117.77 137.765H1124.83V144.824H1117.77V137.765ZM1117.77 144.824H1124.83V151.882H1117.77V144.824ZM1110.71 24.8235H1117.77V31.8824H1110.71V24.8235ZM1110.71 31.8824H1117.77V38.9412H1110.71V31.8824ZM1110.71 46H1117.77V53.0588H1110.71V46ZM1110.71 53.0588H1117.77V60.1177H1110.71V53.0588ZM1110.71 60.1177H1117.77V67.1765H1110.71V60.1177ZM1110.71 67.1765H1117.77V74.2353H1110.71V67.1765ZM1110.71 74.2353H1117.77V81.2941H1110.71V74.2353ZM1110.71 81.2941H1117.77V88.3529H1110.71V81.2941ZM1110.71 88.3529H1117.77V95.4118H1110.71V88.3529ZM1110.71 95.4118H1117.77V102.471H1110.71V95.4118ZM1117.77 67.1765H1124.83V74.2353H1117.77V67.1765ZM1117.77 60.1177H1124.83V67.1765H1117.77V60.1177ZM1117.77 53.0588H1124.83V60.1177H1117.77V53.0588ZM1117.77 46H1124.83V53.0588H1117.77V46ZM1117.77 38.9412H1124.83V46H1117.77V38.9412ZM1110.71 38.9412H1117.77V46H1110.71V38.9412ZM1117.77 24.8235H1124.83V31.8824H1117.77V24.8235ZM1124.83 24.8235H1131.89V31.8824H1124.83V24.8235ZM1124.83 31.8824H1131.89V38.9412H1124.83V31.8824ZM1131.89 38.9412H1138.95V46H1131.89V38.9412ZM1131.89 31.8824H1138.95V38.9412H1131.89V31.8824ZM1131.89 24.8235H1138.95V31.8824H1131.89V24.8235ZM1131.89 46H1138.95V53.0588H1131.89V46ZM1131.89 53.0588H1138.95V60.1177H1131.89V53.0588ZM1131.89 60.1177H1138.95V67.1765H1131.89V60.1177ZM1131.89 67.1765H1138.95V74.2353H1131.89V67.1765ZM1131.89 74.2353H1138.95V81.2941H1131.89V74.2353ZM1131.89 81.2941H1138.95V88.3529H1131.89V81.2941ZM1131.89 88.3529H1138.95V95.4118H1131.89V88.3529ZM1124.83 81.2941H1131.89V88.3529H1124.83V81.2941ZM1124.83 74.2353H1131.89V81.2941H1124.83V74.2353ZM1124.83 67.1765H1131.89V74.2353H1124.83V67.1765ZM1117.77 74.2353H1124.83V81.2941H1117.77V74.2353ZM1117.77 81.2941H1124.83V88.3529H1117.77V81.2941ZM1124.83 60.1177H1131.89V67.1765H1124.83V60.1177ZM1124.83 38.9412H1131.89V46H1124.83V38.9412ZM1124.83 46H1131.89V53.0588H1124.83V46ZM1124.83 53.0588H1131.89V60.1177H1124.83V53.0588ZM1117.77 31.8824H1124.83V38.9412H1117.77V31.8824ZM1138.95 24.8235H1146V31.8824H1138.95V24.8235ZM1138.95 31.8824H1146V38.9412H1138.95V31.8824ZM1138.95 38.9412H1146V46H1138.95V38.9412ZM1138.95 46H1146V53.0588H1138.95V46ZM1146 46H1153.06V53.0588H1146V46ZM1153.06 46H1160.12V53.0588H1153.06V46ZM1160.12 46H1167.18V53.0588H1160.12V46ZM1160.12 38.9412H1167.18V46H1160.12V38.9412ZM1160.12 31.8824H1167.18V38.9412H1160.12V31.8824ZM1160.12 24.8235H1167.18V31.8824H1160.12V24.8235ZM1153.06 24.8235H1160.12V31.8824H1153.06V24.8235ZM1146 24.8235H1153.06V31.8824H1146V24.8235ZM1146 31.8824H1153.06V38.9412H1146V31.8824ZM1153.06 31.8824H1160.12V38.9412H1153.06V31.8824ZM1153.06 38.9412H1160.12V46H1153.06V38.9412ZM1146 38.9412H1153.06V46H1146V38.9412ZM1103.65 24.8235H1110.71V31.8824H1103.65V24.8235ZM1096.59 24.8235H1103.65V31.8824H1096.59V24.8235ZM1089.53 24.8235H1096.59V31.8824H1089.53V24.8235ZM1082.47 24.8235H1089.53V31.8824H1082.47V24.8235ZM1082.47 31.8824H1089.53V38.9412H1082.47V31.8824ZM1082.47 38.9412H1089.53V46H1082.47V38.9412ZM1089.53 38.9412H1096.59V46H1089.53V38.9412ZM1096.59 46H1103.65V53.0588H1096.59V46ZM1089.53 46H1096.59V53.0588H1089.53V46ZM1082.47 46H1089.53V53.0588H1082.47V46ZM1103.65 46H1110.71V53.0588H1103.65V46ZM1103.65 38.9412H1110.71V46H1103.65V38.9412ZM1103.65 31.8824H1110.71V38.9412H1103.65V31.8824ZM1096.59 31.8824H1103.65V38.9412H1096.59V31.8824ZM1096.59 38.9412H1103.65V46H1096.59V38.9412ZM1089.53 31.8824H1096.59V38.9412H1089.53V31.8824Z" fill="black"/>
</g>
<defs>
<clipPath id="clip0_1_2">
<rect width="1187" height="190" fill="white"/>
</clipPath>
</defs>
</svg>
